<svg width="24" height="24" viewBox="0 0 24 24" fill="none" xmlns="http://www.w3.org/2000/svg">
<path d="M16.9499 12.2248C16.7624 12.2248 16.5749 12.2248 16.4249 12.2623C15.3374 11.0248 14.0249 10.1248 12.5624 9.6748C14.0249 8.8498 15.0374 7.27481 15.0374 5.4748C15.0374 2.8123 12.8624 0.674805 10.2374 0.674805C7.5749 0.674805 5.4374 2.8498 5.4374 5.4748C5.4374 7.27481 6.4499 8.8498 7.9124 9.6748C6.4499 10.1248 5.0999 11.0248 4.0124 12.2998C2.4374 14.1748 1.5374 16.7998 1.4624 19.6498C1.4624 19.9873 1.6499 20.2873 1.9124 20.4373C2.9249 20.9248 6.4499 22.5373 10.2374 22.5373C11.3249 22.5373 12.4499 22.4248 13.5749 22.1998C14.5124 22.9123 15.6749 23.3623 16.9499 23.3623C20.0249 23.3623 22.4999 20.8498 22.4999 17.8123C22.4999 14.7748 20.0249 12.2248 16.9499 12.2248ZM10.2374 2.3623C11.9624 2.3623 13.3499 3.7498 13.3499 5.4748C13.3499 7.1998 11.9624 8.58731 10.2374 8.58731C8.5124 8.58731 7.1249 7.1998 7.1249 5.4748C7.1249 3.7498 8.5124 2.3623 10.2374 2.3623ZM3.1874 19.1623C3.3374 16.9123 4.0874 14.8873 5.3249 13.3873C6.6374 11.8498 8.3999 10.9873 10.2749 10.9873C11.8874 10.9873 13.3874 11.6248 14.6249 12.7498C12.7499 13.6498 11.4374 15.5623 11.4374 17.7748C11.4374 18.8623 11.7374 19.8373 12.2999 20.6998C11.6249 20.7748 10.9499 20.8498 10.3124 20.8498C7.3124 20.8498 4.4624 19.7623 3.1874 19.1623ZM16.9499 21.6748C14.8124 21.6748 13.0874 19.9498 13.0874 17.8123C13.0874 15.6748 14.8124 13.9498 16.9499 13.9498C19.0874 13.9498 20.8124 15.6748 20.8124 17.8123C20.8124 19.9498 19.0874 21.6748 16.9499 21.6748Z" fill="#3758F9"/>
<path d="M18.225 16.7247H17.8125V16.3122C17.8125 15.8622 17.4375 15.4497 16.95 15.4497C16.4625 15.4497 16.0875 15.8247 16.0875 16.3122V16.7247H15.675C15.225 16.7247 14.8125 17.0997 14.8125 17.5872C14.8125 18.0747 15.1875 18.4497 15.675 18.4497H16.125V18.8622C16.125 19.3122 16.5 19.7247 16.9875 19.7247C17.475 19.7247 17.85 19.3497 17.85 18.8622V18.4497H18.2625C18.7125 18.4497 19.125 18.0747 19.125 17.5872C19.125 17.0997 18.7125 16.7247 18.225 16.7247Z" fill="#3758F9"/>
</svg>
