<svg width="101" height="100" viewBox="0 0 101 100" fill="none" xmlns="http://www.w3.org/2000/svg">
<path d="M90.833 0V0.5H94.5C95.2467 0.5 95.9577 0.64836 96.6055 0.916992L96.7959 0.456055C98.2625 1.06409 99.4346 2.23669 100.043 3.70312L99.583 3.89453C99.8516 4.54233 100 5.25333 100 6V9.66699H100.5V17H100V24.333H100.5V31.667H100V39H100.5V46.333H100V53.667H100.5V61H100V68.333H100.5V75.667H100V83H100.5V90.333H100V94C100 94.7467 99.8516 95.4577 99.583 96.1055L100.043 96.2959C99.4348 97.7626 98.2626 98.9348 96.7959 99.543L96.6055 99.083C95.9577 99.3516 95.2467 99.5 94.5 99.5H90.833V100H83.5V99.5H76.167V100H68.833V99.5H61.5V100H54.167V99.5H46.833V100H39.5V99.5H32.167V100H24.833V99.5H17.5V100H10.167V99.5H6.5C5.75333 99.5 5.04233 99.3516 4.39453 99.083L4.20312 99.543C2.73669 98.9346 1.56409 97.7625 0.956055 96.2959L1.41699 96.1055C1.14836 95.4577 1 94.7467 1 94V90.333H0.5V83H1V75.667H0.5V68.333H1V61H0.5V53.667H1V46.333H0.5V39H1V31.667H0.5V24.333H1V17H0.5V9.66699H1V6C1 5.25333 1.14836 4.54233 1.41699 3.89453L0.956055 3.70312C1.56424 2.2368 2.7368 1.06424 4.20312 0.456055L4.39453 0.916992C5.04233 0.648361 5.75333 0.5 6.5 0.5H10.167V0H17.5V0.5H24.833V0H32.167V0.5H39.5V0H46.833V0.5H54.167V0H61.5V0.5H68.833V0H76.167V0.5H83.5V0H90.833Z" stroke="#C8C8C8" stroke-dasharray="8 8"/>
<mask id="mask0_1612_8466" style="mask-type:alpha" maskUnits="userSpaceOnUse" x="34" y="34" width="33" height="32">
<rect x="34.5" y="34" width="32" height="32" fill="#D9D9D9"/>
</mask>
<g mask="url(#mask0_1612_8466)">
<path d="M41.1667 62C40.4333 62 39.8056 61.7389 39.2833 61.2167C38.7611 60.6944 38.5 60.0667 38.5 59.3333V40.6667C38.5 39.9333 38.7611 39.3056 39.2833 38.7833C39.8056 38.2611 40.4333 38 41.1667 38H59.8333C60.5667 38 61.1944 38.2611 61.7167 38.7833C62.2389 39.3056 62.5 39.9333 62.5 40.6667V59.3333C62.5 60.0667 62.2389 60.6944 61.7167 61.2167C61.1944 61.7389 60.5667 62 59.8333 62H41.1667ZM42.5 50.7667L47.8333 45.4333L53.1667 50.7667L58.5 45.4333L59.8333 46.7667V40.6667H41.1667V49.4333L42.5 50.7667ZM41.1667 59.3333H59.8333V50.5333L58.5 49.2L53.1667 54.5333L47.8333 49.2L42.5 54.5333L41.1667 53.2V59.3333ZM41.1667 59.3333V50.5333V53.2V40.6667V59.3333Z" fill="#C8C8C8"/>
</g>
</svg>
