<svg width="23" height="24" viewBox="0 0 23 24" fill="none" xmlns="http://www.w3.org/2000/svg">
<path d="M7.18752 13.7256H6.02502C5.80002 13.7256 5.65002 13.8756 5.65002 14.1006V15.2256C5.65002 15.4506 5.80002 15.6006 6.02502 15.6006H7.18752C7.41252 15.6006 7.56252 15.4506 7.56252 15.2256V14.1006C7.56252 13.9131 7.37502 13.7256 7.18752 13.7256Z" fill="#111928"/>
<path d="M12.0625 13.7256H10.9C10.675 13.7256 10.525 13.8756 10.525 14.1006V15.2256C10.525 15.4506 10.675 15.6006 10.9 15.6006H12.0625C12.2875 15.6006 12.4375 15.4506 12.4375 15.2256V14.1006C12.4375 13.9131 12.2875 13.7256 12.0625 13.7256Z" fill="#111928"/>
<path d="M16.975 13.7256H15.8125C15.5875 13.7256 15.4375 13.8756 15.4375 14.1006V15.2256C15.4375 15.4506 15.5875 15.6006 15.8125 15.6006H16.975C17.2 15.6006 17.35 15.4506 17.35 15.2256V14.1006C17.35 13.9131 17.2 13.7256 16.975 13.7256Z" fill="#111928"/>
<path d="M7.18752 18.5625H6.02502C5.80002 18.5625 5.65002 18.7125 5.65002 18.9375V20.0625C5.65002 20.2875 5.80002 20.4375 6.02502 20.4375H7.18752C7.41252 20.4375 7.56252 20.2875 7.56252 20.0625V18.9375C7.56252 18.75 7.37502 18.5625 7.18752 18.5625Z" fill="#111928"/>
<path d="M12.0625 18.5625H10.9C10.675 18.5625 10.525 18.7125 10.525 18.9375V20.0625C10.525 20.2875 10.675 20.4375 10.9 20.4375H12.0625C12.2875 20.4375 12.4375 20.2875 12.4375 20.0625V18.9375C12.4375 18.75 12.2875 18.5625 12.0625 18.5625Z" fill="#111928"/>
<path d="M16.975 18.5625H15.8125C15.5875 18.5625 15.4375 18.7125 15.4375 18.9375V20.0625C15.4375 20.2875 15.5875 20.4375 15.8125 20.4375H16.975C17.2 20.4375 17.35 20.2875 17.35 20.0625V18.9375C17.35 18.75 17.2 18.5625 16.975 18.5625Z" fill="#111928"/>
<path d="M20.5 5.77519H12.3625V5.0627C13.225 4.72519 13.825 3.9002 13.825 2.9252C13.825 1.6502 12.775 0.637695 11.5 0.637695C10.225 0.637695 9.17501 1.6502 9.17501 2.9252C9.17501 3.9002 9.77501 4.72519 10.6375 5.0627V5.77519H2.50001C1.22501 5.77519 0.137512 6.82519 0.137512 8.13769V21.0002C0.137512 22.2752 1.18751 23.3627 2.50001 23.3627H20.5C21.775 23.3627 22.8625 22.3127 22.8625 21.0002V8.10019C22.8625 6.82519 21.775 5.77519 20.5 5.77519ZM11.5 2.3252C11.8375 2.3252 12.1375 2.5877 12.1375 2.9252C12.1375 3.2627 11.875 3.5252 11.5 3.5252C11.125 3.5252 10.8625 3.2627 10.8625 2.9252C10.8625 2.5877 11.1625 2.3252 11.5 2.3252ZM2.50001 7.46269H20.5C20.875 7.46269 21.175 7.76269 21.175 8.13769V10.4627H1.86251V8.13769C1.86251 7.72519 2.12501 7.46269 2.50001 7.46269ZM20.5 21.6752H2.50001C2.12501 21.6752 1.82501 21.3752 1.82501 21.0002V12.1127H21.1375V21.0002C21.175 21.3752 20.875 21.6752 20.5 21.6752Z" fill="#111928"/>
</svg>
