<svg width="24" height="20" viewBox="0 0 24 20" fill="none" xmlns="http://www.w3.org/2000/svg">
<path d="M21 1.97461H18.975V1.14961C18.975 0.699609 18.6 0.287109 18.1125 0.287109C17.625 0.287109 17.25 0.662109 17.25 1.14961V1.93711H6.71251V1.14961C6.71251 0.699609 6.33751 0.287109 5.85001 0.287109C5.36251 0.287109 4.98751 0.662109 4.98751 1.14961V1.93711H3.00001C1.72501 1.93711 0.637512 2.98711 0.637512 4.29961V17.3496C0.637512 18.6246 1.68751 19.7121 3.00001 19.7121H21C22.275 19.7121 23.3625 18.6621 23.3625 17.3496V4.29961C23.3625 3.02461 22.275 1.97461 21 1.97461ZM3.00001 3.66211H5.02501V4.41211C5.02501 4.86211 5.40001 5.27461 5.88751 5.27461C6.37501 5.27461 6.75001 4.89961 6.75001 4.41211V3.66211H17.3625V4.41211C17.3625 4.86211 17.7375 5.27461 18.225 5.27461C18.7125 5.27461 19.0875 4.89961 19.0875 4.41211V3.66211H21C21.375 3.66211 21.675 3.96211 21.675 4.33711V6.81211H2.36251V4.33711C2.36251 3.92461 2.62501 3.66211 3.00001 3.66211ZM21 17.9871H3.00001C2.62501 17.9871 2.32501 17.6871 2.32501 17.3121V8.46211H21.6375V17.3496C21.675 17.7246 21.375 17.9871 21 17.9871Z" fill="#3758F9"/>
<path d="M10.8 9.51172H9.97501C9.75001 9.51172 9.60001 9.66172 9.60001 9.88672V10.7117C9.60001 10.9367 9.75001 11.0867 9.97501 11.0867H10.8C11.025 11.0867 11.175 10.9367 11.175 10.7117V9.88672C11.175 9.66172 10.9875 9.51172 10.8 9.51172Z" fill="#3758F9"/>
<path d="M14.2125 9.51172H13.3875C13.1625 9.51172 13.0125 9.66172 13.0125 9.88672V10.7117C13.0125 10.9367 13.1625 11.0867 13.3875 11.0867H14.2125C14.4375 11.0867 14.5875 10.9367 14.5875 10.7117V9.88672C14.5875 9.66172 14.4375 9.51172 14.2125 9.51172Z" fill="#3758F9"/>
<path d="M17.625 9.51172H16.8C16.575 9.51172 16.425 9.66172 16.425 9.88672V10.7117C16.425 10.9367 16.575 11.0867 16.8 11.0867H17.625C17.85 11.0867 18 10.9367 18 10.7117V9.88672C18 9.66172 17.85 9.51172 17.625 9.51172Z" fill="#3758F9"/>
<path d="M7.2 12.3994H6.375C6.15 12.3994 6 12.5494 6 12.7744V13.5994C6 13.8244 6.15 13.9744 6.375 13.9744H7.2C7.425 13.9744 7.575 13.8244 7.575 13.5994V12.7744C7.575 12.5494 7.3875 12.3994 7.2 12.3994Z" fill="#3758F9"/>
<path d="M10.8 12.3994H9.97501C9.75001 12.3994 9.60001 12.5494 9.60001 12.7744V13.5994C9.60001 13.8244 9.75001 13.9744 9.97501 13.9744H10.8C11.025 13.9744 11.175 13.8244 11.175 13.5994V12.7744C11.175 12.5494 10.9875 12.3994 10.8 12.3994Z" fill="#3758F9"/>
<path d="M14.2125 12.3994H13.3875C13.1625 12.3994 13.0125 12.5494 13.0125 12.7744V13.5994C13.0125 13.8244 13.1625 13.9744 13.3875 13.9744H14.2125C14.4375 13.9744 14.5875 13.8244 14.5875 13.5994V12.7744C14.5875 12.5494 14.4375 12.3994 14.2125 12.3994Z" fill="#3758F9"/>
<path d="M17.625 12.3994H16.8C16.575 12.3994 16.425 12.5494 16.425 12.7744V13.5994C16.425 13.8244 16.575 13.9744 16.8 13.9744H17.625C17.85 13.9744 18 13.8244 18 13.5994V12.7744C18 12.5494 17.85 12.3994 17.625 12.3994Z" fill="#3758F9"/>
<path d="M7.2 15.2871H6.375C6.15 15.2871 6 15.4371 6 15.6621V16.4871C6 16.7121 6.15 16.8621 6.375 16.8621H7.2C7.425 16.8621 7.575 16.7121 7.575 16.4871V15.6621C7.575 15.4371 7.3875 15.2871 7.2 15.2871Z" fill="#3758F9"/>
<path d="M10.8 15.2871H9.97501C9.75001 15.2871 9.60001 15.4371 9.60001 15.6621V16.4871C9.60001 16.7121 9.75001 16.8621 9.97501 16.8621H10.8C11.025 16.8621 11.175 16.7121 11.175 16.4871V15.6621C11.175 15.4371 10.9875 15.2871 10.8 15.2871Z" fill="#3758F9"/>
<path d="M14.2125 15.2871H13.3875C13.1625 15.2871 13.0125 15.4371 13.0125 15.6621V16.4871C13.0125 16.7121 13.1625 16.8621 13.3875 16.8621H14.2125C14.4375 16.8621 14.5875 16.7121 14.5875 16.4871V15.6621C14.5875 15.4371 14.4375 15.2871 14.2125 15.2871Z" fill="#3758F9"/>
</svg>
