<svg width="24" height="24" viewBox="0 0 24 24" fill="none" xmlns="http://www.w3.org/2000/svg">
<path d="M2.31249 23.4374C1.97499 23.4374 1.63749 23.3249 1.37499 23.0624C0.924986 22.6499 0.812486 22.0499 0.999986 21.5249L2.53749 17.5499C1.33749 15.4874 0.812487 13.0874 1.07499 10.6499C1.63749 5.39991 5.83749 1.16241 11.0875 0.637411C14.5 0.299911 17.8375 1.46241 20.275 3.86241C22.675 6.26241 23.875 9.59991 23.5375 13.0124C23.0125 18.3749 18.7375 22.6124 13.375 23.0999C10.9 23.3249 8.49999 22.7999 6.43749 21.5249L2.94999 23.2874C2.72499 23.3999 2.53749 23.4374 2.31249 23.4374ZM6.47499 19.7249C6.62499 19.7249 6.81249 19.7624 6.92499 19.8749C8.79999 21.1124 10.9375 21.6374 13.1875 21.4499C17.725 21.0374 21.3625 17.3999 21.8125 12.8624C22.1125 9.93741 21.1 7.12491 19.0375 5.06241C17.0125 2.99991 14.1625 1.98741 11.275 2.32491C6.77499 2.77491 3.21249 6.37491 2.72499 10.8374C2.49999 13.0499 3.02499 15.1874 4.18749 17.0249C4.33749 17.2499 4.37499 17.5499 4.26249 17.7749L2.83749 21.4499L6.09999 19.7999C6.24999 19.7624 6.36249 19.7249 6.47499 19.7249Z" fill="#111928"/>
</svg>
