<svg width="25" height="24" viewBox="0 0 25 24" fill="none" xmlns="http://www.w3.org/2000/svg">
<g clip-path="url(#clip0_3909_10039)">
<path d="M16.6 3.5625H7.90005C4.03755 3.5625 0.925049 6.675 0.925049 10.5375V18.15C0.925049 19.3875 1.93755 20.4 3.17505 20.4H16.6375C20.5 20.4 23.6125 17.2875 23.6125 13.425V10.5375C23.6125 6.7125 20.4625 3.5625 16.6 3.5625ZM21.925 13.4625C21.925 16.3875 19.5625 18.75 16.6375 18.75H3.17505C2.87505 18.75 2.61255 18.4875 2.61255 18.1875V10.5375C2.61255 7.6125 4.97505 5.25 7.90005 5.25H16.6375C19.5625 5.25 21.925 7.6125 21.925 10.5375V13.4625Z" fill="#111928"/>
<path d="M6.73755 12.9375C7.25532 12.9375 7.67505 12.5178 7.67505 12C7.67505 11.4822 7.25532 11.0625 6.73755 11.0625C6.21978 11.0625 5.80005 11.4822 5.80005 12C5.80005 12.5178 6.21978 12.9375 6.73755 12.9375Z" fill="#111928"/>
<path d="M12.25 12.9375C12.7678 12.9375 13.1875 12.5178 13.1875 12C13.1875 11.4822 12.7678 11.0625 12.25 11.0625C11.7322 11.0625 11.3125 11.4822 11.3125 12C11.3125 12.5178 11.7322 12.9375 12.25 12.9375Z" fill="#111928"/>
<path d="M17.7625 12.9375C18.2802 12.9375 18.7 12.5178 18.7 12C18.7 11.4822 18.2802 11.0625 17.7625 11.0625C17.2447 11.0625 16.825 11.4822 16.825 12C16.825 12.5178 17.2447 12.9375 17.7625 12.9375Z" fill="#111928"/>
</g>
<defs>
<clipPath id="clip0_3909_10039">
<rect width="24" height="24" fill="white" transform="translate(0.25)"/>
</clipPath>
</defs>
</svg>
