<svg width="32" height="31" viewBox="0 0 32 31" fill="none" xmlns="http://www.w3.org/2000/svg">
<g id="Group">
<path id="Vector" d="M2.74998 30.7499C2.29998 30.7499 1.84998 30.5999 1.49998 30.2499C0.899982 29.6999 0.749982 28.8999 0.999982 28.1999L3.04998 22.8999C1.44998 20.1499 0.749982 16.9499 1.09998 13.6999C1.84998 6.69988 7.44998 1.04988 14.45 0.349881C19 -0.100119 23.45 1.44988 26.7 4.64988C29.9 7.84988 31.5 12.2999 31.05 16.8499C30.35 23.9999 24.65 29.6499 17.5 30.2999C14.2 30.5999 11 29.8999 8.24998 28.1999L3.59998 30.5499C3.29998 30.6999 3.04998 30.7499 2.74998 30.7499ZM8.29998 25.7999C8.49998 25.7999 8.74998 25.8499 8.89998 25.9999C11.4 27.6499 14.25 28.3499 17.25 28.0999C23.3 27.5499 28.15 22.6999 28.75 16.6499C29.15 12.7499 27.8 8.99988 25.05 6.24988C22.35 3.49988 18.55 2.14988 14.7 2.59988C8.69998 3.19988 3.94998 7.99988 3.29998 13.9499C2.99998 16.8999 3.69998 19.7499 5.24998 22.1999C5.44998 22.4999 5.49998 22.8999 5.34998 23.1999L3.44998 28.0999L7.79998 25.8999C7.99998 25.8499 8.14998 25.7999 8.29998 25.7999Z" fill="#3758F9"/>
</g>
</svg>
