<svg width="23" height="23" viewBox="0 0 23 23" fill="none" xmlns="http://www.w3.org/2000/svg">
<path d="M11.9636 6.30957H11.9273C11.4909 6.30957 11.0909 6.67321 11.0909 7.14593C11.0909 7.61866 11.4545 7.9823 11.9273 7.9823H11.9636C12.4 7.9823 12.8 7.61866 12.8 7.14593C12.8 6.67321 12.4364 6.30957 11.9636 6.30957Z" fill="#111928"/>
<path d="M11.9636 9.18262C11.5273 9.18262 11.1273 9.54625 11.1273 10.019V15.619C11.1273 16.0553 11.4909 16.4553 11.9636 16.4553C12.4 16.4553 12.8 16.0917 12.8 15.619V9.98262C12.8 9.54625 12.4364 9.18262 11.9636 9.18262Z" fill="#111928"/>
<path d="M11.9636 0.0185547C5.8909 0.0185547 0.94545 4.92765 0.94545 11.0004C0.94545 17.0731 5.8909 22.0186 11.9636 22.0186C18.0364 22.0186 22.9454 17.0731 22.9454 11.0004C22.9454 4.92765 18.0364 0.0185547 11.9636 0.0185547ZM11.9636 20.3822C6.8 20.3822 2.58181 16.164 2.58181 11.0004C2.58181 5.83674 6.8 1.61855 11.9636 1.61855C17.1273 1.61855 21.3091 5.83674 21.3091 11.0004C21.3091 16.164 17.1273 20.3822 11.9636 20.3822Z" fill="#111928"/>
</svg>
