<svg width="16" height="16" viewBox="0 0 16 16" fill="none" xmlns="http://www.w3.org/2000/svg">
<g id="close" clip-path="url(#clip0_3538_10623)">
<path id="Vector" d="M8.80039 8.00039L14.9004 1.90039C15.1254 1.67539 15.1254 1.32539 14.9004 1.10039C14.6754 0.875391 14.3254 0.875391 14.1004 1.10039L8.00039 7.20039L1.90039 1.10039C1.67539 0.875391 1.32539 0.875391 1.10039 1.10039C0.875391 1.32539 0.875391 1.67539 1.10039 1.90039L7.20039 8.00039L1.10039 14.1004C0.875391 14.3254 0.875391 14.6754 1.10039 14.9004C1.20039 15.0004 1.35039 15.0754 1.50039 15.0754C1.65039 15.0754 1.80039 15.0254 1.90039 14.9004L8.00039 8.80039L14.1004 14.9004C14.2004 15.0004 14.3504 15.0754 14.5004 15.0754C14.6504 15.0754 14.8004 15.0254 14.9004 14.9004C15.1254 14.6754 15.1254 14.3254 14.9004 14.1004C12.5182 11.7182 11.1826 10.3826 8.80039 8.00039Z" fill="#1F2A37"/>
</g>
<defs>
<clipPath id="clip0_3538_10623">
<rect width="16" height="16" fill="white"/>
</clipPath>
</defs>
</svg>
