<svg width="24" height="24" viewBox="0 0 24 24" fill="none" xmlns="http://www.w3.org/2000/svg">
<path d="M12.9748 10.1627C12.7498 9.9377 12.4498 9.8252 12.1498 9.8252C11.8498 9.8252 11.5498 9.9377 11.3248 10.1627L9.5623 12.0002C9.2248 12.3377 9.2623 12.8627 9.5998 13.2002C9.9373 13.5377 10.4623 13.5002 10.7998 13.1627L11.3623 12.6002V15.4877C11.3623 15.9377 11.7373 16.3502 12.2248 16.3502C12.6748 16.3502 13.0873 15.9752 13.0873 15.4877V12.6002L13.6498 13.1627C13.7998 13.3502 14.0248 13.4252 14.2498 13.4252C14.4748 13.4252 14.6623 13.3502 14.8498 13.2002C15.1873 12.8627 15.1873 12.3377 14.8873 12.0002L12.9748 10.1627Z" fill="#3758F9"/>
<path d="M21.4873 8.85039C20.4748 7.76289 19.0873 7.05039 17.6248 6.78789C16.7998 5.51289 15.5998 4.57539 14.2123 4.08789C13.5748 3.86289 12.8248 3.71289 12.0373 3.71289C8.5123 3.71289 5.5873 6.41289 5.3623 9.82539C2.6998 10.1629 0.674805 12.3754 0.674805 15.0379C0.674805 17.9254 3.0373 20.2504 5.9623 20.2504H16.3873C20.2123 20.2504 23.3623 17.2129 23.3623 13.4629C23.3623 11.7754 22.6873 10.1254 21.4873 8.85039ZM16.3873 18.6004H5.9998C3.9373 18.6004 2.3623 17.0254 2.3623 15.0754C2.3623 13.0879 3.9748 11.5504 5.9998 11.5504H6.1873C6.6373 11.5504 7.0498 11.1754 7.0498 10.6879V10.3129C7.0498 7.61289 9.2998 5.43789 12.0373 5.43789C12.6373 5.43789 13.1623 5.51289 13.6498 5.70039C14.8123 6.07539 15.7873 6.90039 16.3873 7.98789C16.5373 8.21289 16.7623 8.40039 17.0248 8.40039C18.2623 8.51289 19.4623 9.11289 20.2873 10.0129C21.1873 10.9879 21.6748 12.2254 21.6748 13.5004C21.6748 16.3129 19.2748 18.6004 16.3873 18.6004Z" fill="#3758F9"/>
</svg>
