<svg width="51" height="35" viewBox="0 0 51 35" fill="none" xmlns="http://www.w3.org/2000/svg">
<g id="Group">
<path id="Vector" d="M48.4313 31.6247H46.0591V20.6918H46.1382C47.0871 20.6918 47.9569 19.9581 47.9569 19.0042C47.9569 18.0503 47.1661 17.3166 46.1382 17.3166H40.3658V11.6667C40.3658 10.0524 39.4169 8.5849 37.9936 7.77778L28.0304 2.20126C26.4489 1.32075 24.472 1.32075 22.8906 2.20126L21.5463 3.00839C20.9137 1.32076 19.1741 0 17.1182 0H16.5647C14.0343 0 11.9784 1.90776 11.9784 4.25577V8.51153C11.1086 9.39203 10.5551 10.4927 10.5551 11.74V17.3899H4.86182C3.91294 17.3899 3.04313 18.1237 3.04313 19.0776C3.04313 20.0314 3.83387 20.7652 4.86182 20.7652H4.94089V31.6247H2.56869C1.61981 31.6247 0.75 32.3585 0.75 33.3124C0.75 34.2662 1.54073 35 2.56869 35H48.4313C49.3802 35 50.25 34.2662 50.25 33.3124C50.25 32.3585 49.3802 31.6247 48.4313 31.6247ZM42.5008 20.6918V31.5514H40.4449V20.6918H42.5008ZM16.6438 3.30189H17.1973C17.7508 3.30189 18.2252 3.74214 18.2252 4.25577V4.84277L15.6158 6.31027V4.25577C15.6158 3.74214 16.0903 3.30189 16.6438 3.30189ZM14.1925 11.74C14.1925 11.2998 14.4297 10.8595 14.8251 10.6394L24.7883 5.06289C25.2628 4.84277 25.8163 4.84277 26.2117 5.06289L36.1749 10.6394C36.5703 10.8595 36.8075 11.2998 36.8075 11.74V17.3899H14.1925V11.74ZM8.4992 20.6918H10.5551V31.5514H8.4992V20.6918ZM26.6861 31.6247H24.0767V26.9287H26.6861V31.6247ZM30.2444 31.6247V26.782C30.2444 25.0943 28.742 23.6268 26.8442 23.6268H23.9185C22.0998 23.6268 20.5184 25.021 20.5184 26.782V31.6247H14.1134V20.6918H36.8075V31.5514H30.2444V31.6247Z" fill="#FFFEFE"/>
<path id="Vector_2" d="M25.2499 8.36475C22.7986 8.36475 20.8218 10.1991 20.8218 12.4738C20.8218 14.7484 22.7986 16.5828 25.2499 16.5828C27.7012 16.5828 29.678 14.7484 29.678 12.4738C29.678 10.1991 27.7012 8.36475 25.2499 8.36475ZM25.2499 13.2809C24.7755 13.2809 24.3801 12.914 24.3801 12.4738C24.3801 12.0335 24.7755 11.6666 25.2499 11.6666C25.7243 11.6666 26.1197 12.0335 26.1197 12.4738C26.1197 12.914 25.7243 13.2809 25.2499 13.2809Z" fill="#FFFEFE"/>
</g>
</svg>
