<svg width="16" height="16" viewBox="0 0 16 16" fill="none" xmlns="http://www.w3.org/2000/svg">
<mask id="mask0_3142_2996" style="mask-type:alpha" maskUnits="userSpaceOnUse" x="0" y="0" width="16" height="16">
<rect width="16" height="16" fill="#D9D9D9"/>
</mask>
<g mask="url(#mask0_3142_2996)">
<path d="M1.52232 14.5798C1.09691 14.5798 0.736842 14.4325 0.442105 14.1377C0.147368 13.843 0 13.4829 0 13.0575V3.47056C0 3.04515 0.147368 2.68508 0.442105 2.39035C0.736842 2.09561 1.09691 1.94824 1.52232 1.94824H5.51579C5.71874 1.94824 5.9139 1.98768 6.10126 2.06656C6.28849 2.14529 6.45123 2.25379 6.58947 2.39203L7.8299 3.63245H14.4777C14.9031 3.63245 15.2632 3.77982 15.5579 4.07456C15.8526 4.3693 16 4.72937 16 5.15477V13.0575C16 13.4829 15.8526 13.843 15.5579 14.1377C15.2632 14.4325 14.9031 14.5798 14.4777 14.5798H1.52232ZM1.52232 13.3167H14.4777C14.5533 13.3167 14.6154 13.2924 14.664 13.2438C14.7126 13.1953 14.7368 13.1332 14.7368 13.0575V5.15477C14.7368 5.07912 14.7126 5.01701 14.664 4.96845C14.6154 4.91989 14.5533 4.89561 14.4777 4.89561H7.31326L5.70211 3.28424C5.67502 3.2573 5.64667 3.23842 5.61705 3.22761C5.5873 3.2168 5.55621 3.2114 5.52379 3.2114H1.52232C1.44667 3.2114 1.38456 3.23568 1.336 3.28424C1.28744 3.3328 1.26316 3.39491 1.26316 3.47056V13.0575C1.26316 13.1332 1.28744 13.1953 1.336 13.2438C1.38456 13.2924 1.44667 13.3167 1.52232 13.3167ZM9.89474 9.73772V10.7903C9.89474 10.9696 9.95523 11.1196 10.0762 11.2405C10.1971 11.3614 10.3471 11.4219 10.5263 11.4219C10.7055 11.4219 10.8556 11.3614 10.9764 11.2405C11.0974 11.1196 11.1579 10.9696 11.1579 10.7903V9.73772H12.2105C12.3898 9.73772 12.5398 9.67723 12.6606 9.55624C12.7816 9.4354 12.8421 9.28537 12.8421 9.10614C12.8421 8.92691 12.7816 8.77687 12.6606 8.65603C12.5398 8.53505 12.3898 8.47456 12.2105 8.47456H11.1579V7.42193C11.1579 7.2427 11.0974 7.09266 10.9764 6.97182C10.8556 6.85084 10.7055 6.79035 10.5263 6.79035C10.3471 6.79035 10.1971 6.85084 10.0762 6.97182C9.95523 7.09266 9.89474 7.2427 9.89474 7.42193V8.47456H8.8421C8.66288 8.47456 8.51284 8.53505 8.392 8.65603C8.27102 8.77687 8.21053 8.92691 8.21053 9.10614C8.21053 9.28537 8.27102 9.4354 8.392 9.55624C8.51284 9.67723 8.66288 9.73772 8.8421 9.73772H9.89474Z" fill="#111928"/>
</g>
</svg>
