<svg width="28" height="28" viewBox="0 0 28 28" fill="none" xmlns="http://www.w3.org/2000/svg">
<mask id="mask0_2996_3627" style="mask-type:alpha" maskUnits="userSpaceOnUse" x="0" y="0" width="28" height="28">
<rect width="28" height="28" fill="#D9D9D9"/>
</mask>
<g mask="url(#mask0_2996_3627)">
<path d="M2.66405 25.5135C1.9196 25.5135 1.28947 25.2556 0.773684 24.7398C0.257895 24.224 0 23.5939 0 22.8494V6.07226C0 5.3278 0.257895 4.69768 0.773684 4.18189C1.28947 3.6661 1.9196 3.4082 2.66405 3.4082H9.65263C10.0078 3.4082 10.3493 3.47722 10.6772 3.61526C11.0049 3.75305 11.2896 3.94291 11.5316 4.18484L13.7023 6.35557H25.3359C26.0804 6.35557 26.7105 6.61347 27.2263 7.12926C27.7421 7.64505 28 8.27517 28 9.01962V22.8494C28 23.5939 27.7421 24.224 27.2263 24.7398C26.7105 25.2556 26.0804 25.5135 25.3359 25.5135H2.66405ZM2.66405 23.3029H25.3359C25.4683 23.3029 25.577 23.2605 25.662 23.1755C25.747 23.0905 25.7895 22.9818 25.7895 22.8494V9.01962C25.7895 8.88724 25.747 8.77856 25.662 8.69357C25.577 8.60859 25.4683 8.5661 25.3359 8.5661H12.7982L9.97868 5.7462C9.93128 5.69905 9.88167 5.66601 9.82984 5.6471C9.77777 5.62819 9.72337 5.61873 9.66663 5.61873H2.66405C2.53167 5.61873 2.42298 5.66122 2.338 5.7462C2.25302 5.83119 2.21053 5.93987 2.21053 6.07226V22.8494C2.21053 22.9818 2.25302 23.0905 2.338 23.1755C2.42298 23.2605 2.53167 23.3029 2.66405 23.3029ZM17.3158 17.0398V18.8819C17.3158 19.1955 17.4216 19.4581 17.6334 19.6696C17.8448 19.8813 18.1074 19.9872 18.4211 19.9872C18.7347 19.9872 18.9973 19.8813 19.2087 19.6696C19.4205 19.4581 19.5263 19.1955 19.5263 18.8819V17.0398H21.3684C21.6821 17.0398 21.9446 16.9339 22.1561 16.7222C22.3678 16.5107 22.4737 16.2482 22.4737 15.9345C22.4737 15.6209 22.3678 15.3583 22.1561 15.1468C21.9446 14.9351 21.6821 14.8293 21.3684 14.8293H19.5263V12.9872C19.5263 12.6735 19.4205 12.4109 19.2087 12.1995C18.9973 11.9877 18.7347 11.8819 18.4211 11.8819C18.1074 11.8819 17.8448 11.9877 17.6334 12.1995C17.4216 12.4109 17.3158 12.6735 17.3158 12.9872V14.8293H15.4737C15.16 14.8293 14.8975 14.9351 14.686 15.1468C14.4743 15.3583 14.3684 15.6209 14.3684 15.9345C14.3684 16.2482 14.4743 16.5107 14.686 16.7222C14.8975 16.9339 15.16 17.0398 15.4737 17.0398H17.3158Z" fill="#3758F9"/>
</g>
</svg>
