<svg width="19" height="14" viewBox="0 0 19 14" fill="none" xmlns="http://www.w3.org/2000/svg">
<g id="Group">
<g id="Group_2">
<path id="Vector" d="M9.5 13.4687C3.3125 13.4687 0.25 7.5625 0.125 7.3125C0.03125 7.125 0.03125 6.875 0.125 6.6875C0.25 6.4375 3.3125 0.5625 9.5 0.5625C15.6875 0.5625 18.75 6.4375 18.875 6.6875C18.9687 6.875 18.9687 7.125 18.875 7.3125C18.75 7.5625 15.6875 13.4687 9.5 13.4687ZM1.5625 7C2.25 8.15625 4.9375 12.0625 9.5 12.0625C14.0625 12.0625 16.75 8.15625 17.4375 7C16.75 5.84375 14.0625 1.9375 9.5 1.9375C4.9375 1.9375 2.25 5.84375 1.5625 7Z" fill="#3758F9"/>
</g>
<g id="Group_3">
<path id="Vector_2" d="M9.5 9.65625C8.03125 9.65625 6.84375 8.46875 6.84375 7C6.84375 5.53125 8.03125 4.34375 9.5 4.34375C10.9687 4.34375 12.1562 5.53125 12.1562 7C12.1562 8.46875 10.9687 9.65625 9.5 9.65625ZM9.5 5.75C8.8125 5.75 8.25 6.3125 8.25 7C8.25 7.6875 8.8125 8.25 9.5 8.25C10.1875 8.25 10.75 7.6875 10.75 7C10.75 6.3125 10.1875 5.75 9.5 5.75Z" fill="#3758F9"/>
</g>
</g>
</svg>
