<svg width="24" height="16" viewBox="0 0 24 16" fill="none" xmlns="http://www.w3.org/2000/svg">
<path d="M12 15.7629C4.57499 15.7629 0.899994 8.67539 0.749994 8.37539C0.637494 8.15039 0.637494 7.85039 0.749994 7.62539C0.899994 7.32539 4.57499 0.275391 12 0.275391C19.425 0.275391 23.1 7.32539 23.25 7.62539C23.3625 7.85039 23.3625 8.15039 23.25 8.37539C23.1 8.67539 19.425 15.7629 12 15.7629ZM2.47499 8.00039C3.29999 9.38789 6.52499 14.0754 12 14.0754C17.475 14.0754 20.7 9.38789 21.525 8.00039C20.7 6.61289 17.475 1.92539 12 1.92539C6.52499 1.92539 3.29999 6.61289 2.47499 8.00039Z" fill="#111928"/>
<path d="M12 11.1875C10.2375 11.1875 8.8125 9.7625 8.8125 8C8.8125 6.2375 10.2375 4.8125 12 4.8125C13.7625 4.8125 15.1875 6.2375 15.1875 8C15.1875 9.7625 13.7625 11.1875 12 11.1875ZM12 6.5C11.175 6.5 10.5 7.175 10.5 8C10.5 8.825 11.175 9.5 12 9.5C12.825 9.5 13.5 8.825 13.5 8C13.5 7.175 12.825 6.5 12 6.5Z" fill="#111928"/>
</svg>
