<svg width="24" height="24" viewBox="0 0 24 24" fill="none" xmlns="http://www.w3.org/2000/svg">
<path d="M22.875 7.35V6.1125C22.875 4.8375 21.8625 3.825 20.5875 3.825H12.2625L12.15 3.525C11.8875 2.85 11.25 2.4375 10.5375 2.4375H2.96255C1.68755 2.4375 0.675049 3.45 0.675049 4.725V19.3125C0.675049 20.5875 1.68755 21.6 2.96255 21.6H21.0751C22.35 21.6 23.3625 20.5875 23.3625 19.3125V8.5125C23.3625 8.0625 23.175 7.65 22.875 7.35ZM20.5875 5.475C20.925 5.475 21.1875 5.7375 21.1875 6.075V6.7875H13.4625L12.9375 5.475H20.5875ZM21.675 19.3125C21.675 19.65 21.4125 19.9125 21.0751 19.9125H2.96255C2.62505 19.9125 2.36255 19.65 2.36255 19.3125V4.6875C2.36255 4.35 2.62505 4.0875 2.96255 4.0875L10.575 4.125L12.1125 7.95C12.225 8.2875 12.5625 8.475 12.9 8.475H21.6376C21.6376 8.475 21.675 8.475 21.675 8.5125V19.3125Z" fill="#3758F9"/>
</svg>
