<svg width="312" height="244" viewBox="0 0 312 244" fill="none" xmlns="http://www.w3.org/2000/svg">
<path d="M45.9568 220.186C106.731 251.938 205.266 251.938 266.041 220.186C326.815 188.433 326.815 136.963 266.041 105.211C205.266 73.4577 106.731 73.4644 45.9568 105.211C-14.8177 136.957 -14.811 188.439 45.9568 220.186Z" fill="#FAFAFA"/>
<path d="M216.325 216.193C225.32 220.482 239.925 220.482 248.914 216.193C257.902 211.905 257.915 204.953 248.914 200.684C239.912 196.416 225.313 196.396 216.325 200.684C207.336 204.973 207.323 211.938 216.325 216.193Z" fill="#EBEBEB"/>
<path d="M36.9209 120.093L40.879 117.834C40.879 117.834 42.7738 107.383 41.3578 98.3941C39.3349 85.7577 30.7578 81.4017 27.6358 82.6559C24.5138 83.9101 23.7721 87.6525 29.416 94.9552C32.747 99.2639 37.0288 108.367 36.9209 120.093Z" fill="#E0E0E0"/>
<path d="M38.7146 116.189C38.6627 116.186 38.6117 116.174 38.5648 116.151C38.5178 116.129 38.4759 116.097 38.4413 116.058C38.4068 116.019 38.3804 115.974 38.3636 115.924C38.3469 115.875 38.3401 115.823 38.3438 115.771C39.2136 100.006 36.2332 90.7207 28.2698 84.625C28.2282 84.5939 28.1933 84.5548 28.167 84.51C28.1407 84.4652 28.1237 84.4156 28.1168 84.3641C28.1098 84.3127 28.1133 84.2603 28.1268 84.2102C28.1403 84.1601 28.1637 84.1131 28.1956 84.0721C28.2606 83.9912 28.3543 83.9383 28.4572 83.9245C28.5602 83.9107 28.6644 83.937 28.7485 83.9979C36.9412 90.2689 40.043 99.7901 39.1057 115.818C39.1005 115.918 39.0571 116.013 38.9843 116.082C38.9115 116.151 38.815 116.189 38.7146 116.189Z" fill="white"/>
<path d="M24.9856 126.801C24.3585 127.159 23.0706 126.377 22.5783 126.046C21.7322 125.47 21.0493 124.685 20.5959 123.767C20.0792 122.724 19.9046 121.544 20.0969 120.395C20.1986 119.793 20.3405 119.199 20.5217 118.615C20.6903 118.035 20.8521 117.456 21.0207 116.882C21.2217 116.323 21.3088 115.729 21.2769 115.136C21.1218 113.949 20.0699 113.113 19.1124 112.398C18.1549 111.684 16.9614 110.578 16.9614 109.148C17.0406 108.042 17.4813 106.992 18.2156 106.161C18.8899 105.298 19.7126 104.536 20.3262 103.626C20.8114 102.989 21.0658 102.207 21.0477 101.407C20.981 100.918 20.8158 100.448 20.5622 100.025C19.9833 99.1407 19.476 98.2117 19.045 97.2467C18.8387 96.7593 18.7743 96.2235 18.8589 95.701C18.9436 95.1786 19.1741 94.6906 19.5238 94.2933C19.872 94.0338 20.2682 93.846 20.6895 93.7406C21.1108 93.6353 21.5488 93.6146 21.9782 93.6797C22.7886 93.7812 23.568 94.0548 24.2641 94.4821C26.5297 95.743 27.8244 98.4268 30.2249 99.3978C31.1829 99.6926 32.1579 99.929 33.1446 100.106C33.6365 100.197 34.1038 100.391 34.5161 100.674C34.9285 100.958 35.2767 101.325 35.5383 101.751C36.4217 103.511 34.7831 105.682 35.4035 107.557C35.9564 109.209 37.5612 109.843 38.4648 111.333C38.8338 111.993 38.9826 112.754 38.8896 113.504C38.8115 114.771 38.5007 116.012 37.9726 117.166C37.3823 118.314 36.7061 119.416 35.9497 120.463C35.9497 120.463 25.053 126.747 24.9856 126.801Z" fill="#F0F0F0"/>
<path d="M31.4591 123.458H31.4119C31.3604 123.452 31.3105 123.436 31.2653 123.411C31.22 123.386 31.1802 123.352 31.1482 123.311C31.1162 123.27 31.0926 123.224 31.0789 123.174C31.0651 123.124 31.0614 123.071 31.068 123.02C32.2143 113.951 27.8853 101.726 21.4323 95.7647C21.3946 95.7298 21.3643 95.6877 21.3429 95.641C21.3215 95.5943 21.3095 95.5438 21.3076 95.4925C21.3058 95.4411 21.314 95.3899 21.3319 95.3417C21.3498 95.2936 21.3771 95.2494 21.412 95.2118C21.447 95.1742 21.4891 95.1438 21.5358 95.1224C21.5825 95.101 21.633 95.0891 21.6843 95.0872C21.7357 95.0853 21.7869 95.0936 21.835 95.1115C21.8832 95.1294 21.9273 95.1566 21.965 95.1916C28.7079 101.402 33.0437 113.674 31.8502 123.121C31.8357 123.215 31.7884 123.3 31.7168 123.362C31.6451 123.424 31.5537 123.458 31.4591 123.458Z" fill="white"/>
<path d="M30.333 111.623C30.2476 111.623 30.1645 111.595 30.097 111.543C26.6514 108.96 21.1626 109.445 21.1086 109.445C21.0049 109.455 20.9015 109.423 20.8212 109.357C20.7409 109.291 20.6903 109.195 20.6805 109.091C20.6706 108.988 20.7024 108.884 20.7688 108.804C20.8352 108.724 20.9307 108.673 21.0345 108.663C21.2705 108.663 26.8874 108.158 30.5691 110.922C30.6106 110.953 30.6455 110.992 30.6718 111.037C30.6981 111.082 30.7152 111.132 30.7221 111.183C30.729 111.235 30.7256 111.287 30.712 111.337C30.6985 111.387 30.6751 111.434 30.6432 111.475C30.607 111.523 30.5599 111.561 30.506 111.587C30.4521 111.612 30.3928 111.625 30.333 111.623Z" fill="white"/>
<path d="M29.7732 109.358C29.6695 109.351 29.5724 109.305 29.5021 109.228C29.4317 109.152 29.3936 109.051 29.3956 108.947C29.4753 107.547 29.8393 106.179 30.4653 104.924C31.0913 103.67 31.9663 102.556 33.0368 101.651C33.1191 101.587 33.2235 101.558 33.3272 101.57C33.4309 101.583 33.5253 101.636 33.5897 101.719C33.6541 101.801 33.6832 101.905 33.6705 102.009C33.6579 102.113 33.6045 102.207 33.5223 102.271C32.5433 103.11 31.7411 104.135 31.1623 105.287C30.5834 106.439 30.2396 107.695 30.1508 108.981C30.1459 109.079 30.1045 109.173 30.0348 109.242C29.965 109.312 29.8718 109.353 29.7732 109.358Z" fill="white"/>
<path d="M265.958 76.9749L259.012 90.6602L260.13 91.2278L267.076 77.5425L265.958 76.9749Z" fill="#37474F"/>
<path d="M253.081 75.8711L252.014 76.5312L258.786 87.4704L259.853 86.8102L253.081 75.8711Z" fill="#37474F"/>
<path d="M260.633 74.5908V107.564C260.623 107.657 260.589 107.745 260.535 107.821C260.48 107.896 260.407 107.957 260.323 107.996C260.093 108.112 259.839 108.172 259.581 108.172C259.324 108.172 259.069 108.112 258.839 107.996C258.754 107.958 258.68 107.898 258.626 107.822C258.571 107.746 258.538 107.657 258.529 107.564V74.5908H260.633Z" fill="#37474F"/>
<path d="M276.19 78.4519C283.985 75.1705 287.644 66.1914 284.362 58.3966C281.081 50.6018 272.102 46.943 264.307 50.2245C256.513 53.5059 252.854 62.4849 256.135 70.2797C259.417 78.0745 268.396 81.7333 276.19 78.4519Z" fill="#D97706"/>
<path opacity="0.2" d="M275.043 60.4104C277.018 54.1934 279.122 51.7592 277.787 51.0039C275.25 49.5675 272.356 48.8848 269.445 49.0363C266.534 49.1878 263.727 50.1671 261.353 51.8591C258.979 53.5511 257.138 55.8855 256.045 58.5879C254.952 61.2904 254.653 64.2487 255.183 67.1152C255.714 69.9816 257.051 72.6372 259.039 74.7697C261.026 76.9022 263.581 78.4231 266.403 79.1537C269.225 79.8842 272.197 79.7941 274.97 78.8939C277.743 77.9937 280.201 76.3208 282.055 74.0718C277.524 75.4001 272.521 68.4751 275.043 60.4104Z" fill="black"/>
<path d="M253.732 76.2709C257.934 72.0681 257.934 65.2541 253.732 61.0514C249.529 56.8486 242.715 56.8486 238.512 61.0514C234.309 65.2541 234.309 72.0681 238.512 76.2709C242.715 80.4737 249.529 80.4737 253.732 76.2709Z" fill="#D97706"/>
<path d="M246.122 57.9021C243.865 57.899 241.664 58.6068 239.831 59.925C239.541 66.4995 245.124 72.9121 243.56 75.0631C241.996 77.2141 238.165 75.8992 236.817 74.0651C237.765 75.7066 239.128 77.0694 240.77 78.0164C242.412 78.9634 244.274 79.4611 246.17 79.4594C248.065 79.4578 249.927 78.9568 251.567 78.0069C253.207 77.057 254.568 75.6917 255.513 74.0485C256.458 72.4054 256.953 70.5423 256.949 68.6469C256.945 66.7514 256.441 64.8905 255.489 63.2516C254.537 61.6126 253.17 60.2533 251.526 59.3107C249.881 58.368 248.018 57.8752 246.122 57.8819V57.9021Z" fill="#D97706"/>
<path opacity="0.2" d="M246.122 57.9021C243.865 57.899 241.664 58.6068 239.831 59.925C239.541 66.4995 245.124 72.9121 243.56 75.0631C241.996 77.2141 238.165 75.8992 236.817 74.0651C237.765 75.7066 239.128 77.0694 240.77 78.0164C242.412 78.9634 244.274 79.4611 246.17 79.4594C248.065 79.4578 249.927 78.9568 251.567 78.0069C253.207 77.057 254.568 75.6917 255.513 74.0485C256.458 72.4054 256.953 70.5423 256.949 68.6469C256.945 66.7514 256.441 64.8905 255.489 63.2516C254.537 61.6126 253.17 60.2533 251.526 59.3107C249.881 58.368 248.018 57.8752 246.122 57.8819V57.9021Z" fill="black"/>
<path d="M259.581 76.8025C270.485 76.8025 279.325 67.963 279.325 57.0589C279.325 46.1549 270.485 37.3154 259.581 37.3154C248.677 37.3154 239.838 46.1549 239.838 57.0589C239.838 67.963 248.677 76.8025 259.581 76.8025Z" fill="#D97706"/>
<path opacity="0.1" d="M278.798 61.5711C278.049 64.7651 276.516 67.7221 274.337 70.1747C272.157 72.6273 269.402 74.4982 266.318 75.6184C263.234 76.7385 259.92 77.0726 256.675 76.5904C253.43 76.1082 250.356 74.825 247.731 72.8566C245.107 70.8882 243.014 68.2968 241.642 65.3166C240.27 62.3364 239.663 59.0613 239.875 55.7873C240.086 52.5134 241.111 49.3438 242.855 46.5651C244.599 43.7863 247.008 41.486 249.864 39.8721C248.153 40.8457 246.595 42.0658 245.239 43.4931C244.897 44.9725 244.723 46.4857 244.719 48.0041C244.718 51.9556 245.902 55.8166 248.12 59.0874C250.337 62.3581 253.485 64.888 257.156 66.3495C260.827 67.8111 264.853 68.137 268.711 67.285C272.57 66.4331 276.084 64.4425 278.798 61.5711Z" fill="black"/>
<path d="M275.637 119.445L136.124 199.991C135.672 200.22 135.172 200.339 134.664 200.339C134.157 200.339 133.657 200.22 133.205 199.991L18.3447 133.68C17.9209 133.402 17.5683 133.028 17.3153 132.589C17.0623 132.15 16.916 131.657 16.8882 131.151V128.198C16.915 127.692 17.0608 127.199 17.3139 126.759C17.567 126.32 17.9201 125.946 18.3447 125.669L157.891 45.1173C158.343 44.888 158.843 44.7686 159.351 44.7686C159.858 44.7686 160.358 44.888 160.81 45.1173L275.637 111.468C276.06 111.746 276.413 112.12 276.666 112.559C276.919 112.999 277.065 113.491 277.093 113.997V116.951C277.06 117.451 276.911 117.937 276.659 118.37C276.406 118.802 276.056 119.171 275.637 119.445Z" fill="#D97706"/>
<path opacity="0.2" d="M275.637 119.445L136.124 199.991C135.672 200.22 135.172 200.339 134.664 200.339C134.157 200.339 133.657 200.22 133.205 199.991L18.3447 133.68C17.9209 133.402 17.5683 133.028 17.3153 132.589C17.0623 132.15 16.916 131.657 16.8882 131.151V128.198C16.915 127.692 17.0608 127.199 17.3139 126.759C17.567 126.32 17.9201 125.946 18.3447 125.669L157.891 45.1173C158.343 44.888 158.843 44.7686 159.351 44.7686C159.858 44.7686 160.358 44.888 160.81 45.1173L275.637 111.468C276.06 111.746 276.413 112.12 276.666 112.559C276.919 112.999 277.065 113.491 277.093 113.997V116.951C277.06 117.451 276.911 117.937 276.659 118.37C276.406 118.802 276.056 119.171 275.637 119.445Z" fill="black"/>
<g style="mix-blend-mode:multiply">
<path d="M277.093 113.964C277.065 113.458 276.919 112.965 276.666 112.526C276.413 112.087 276.06 111.713 275.637 111.435L274.355 110.7L134.661 191.347V200.342C135.169 200.352 135.67 200.231 136.118 199.991L275.63 119.446C276.054 119.168 276.406 118.794 276.659 118.355C276.912 117.916 277.059 117.423 277.086 116.917L277.093 113.964Z" fill="#D97706"/>
</g>
<g style="mix-blend-mode:multiply" opacity="0.2">
<path d="M277.093 113.964C277.065 113.458 276.919 112.965 276.666 112.526C276.413 112.087 276.06 111.713 275.637 111.435L274.355 110.7L134.661 191.347V200.342C135.169 200.352 135.67 200.231 136.118 199.991L275.63 119.446C276.054 119.168 276.406 118.794 276.659 118.355C276.912 117.916 277.059 117.423 277.086 116.917L277.093 113.964Z" fill="black"/>
</g>
<path d="M18.3445 127.355L133.204 193.666C133.657 193.895 134.157 194.014 134.664 194.014C135.172 194.014 135.672 193.895 136.124 193.666L275.637 113.12C275.813 113.061 275.966 112.947 276.074 112.796C276.182 112.645 276.241 112.464 276.241 112.278C276.241 112.092 276.182 111.91 276.074 111.759C275.966 111.608 275.813 111.495 275.637 111.435L160.777 45.1173C160.324 44.888 159.824 44.7686 159.317 44.7686C158.809 44.7686 158.309 44.888 157.857 45.1173L18.3445 125.669C18.1684 125.729 18.0154 125.842 17.9071 125.994C17.7987 126.145 17.7405 126.326 17.7405 126.512C17.7405 126.698 17.7987 126.879 17.9071 127.031C18.0154 127.182 18.1684 127.295 18.3445 127.355Z" fill="#13C296"/>
<path d="M79.5228 144.111C82.7324 142.256 82.7324 139.222 79.5228 137.368L64.9647 128.999C64.8106 128.911 64.6827 128.783 64.5937 128.629C64.5047 128.475 64.4578 128.301 64.4578 128.123C64.4578 127.945 64.5047 127.77 64.5937 127.617C64.6827 127.463 64.8106 127.335 64.9647 127.246L71.6672 123.383L60.7099 117.058L47.3722 124.718C44.1626 126.572 44.1693 129.6 47.3722 131.461L61.9708 139.849C62.1249 139.938 62.2528 140.065 62.3418 140.219C62.4308 140.373 62.4776 140.548 62.4776 140.726C62.4776 140.903 62.4308 141.078 62.3418 141.232C62.2528 141.386 62.1249 141.513 61.9708 141.602L52.4902 147.071L63.488 153.362L79.5228 144.111Z" fill="#F5F5F5"/>
<path d="M118.228 96.4657L153.838 75.9062V113.863L118.228 134.415V96.4657Z" fill="#E0E0E0"/>
<path d="M142.152 92.1702L129.914 99.2099C129.703 99.3504 129.527 99.5381 129.4 99.758C129.274 99.978 129.201 100.224 129.186 100.478V114.638C129.186 115.103 129.516 115.312 129.914 115.056L142.152 108.016C142.365 107.877 142.542 107.69 142.668 107.47C142.795 107.249 142.868 107.002 142.881 106.749V92.5883C142.881 92.123 142.557 91.914 142.152 92.1702Z" fill="#455A64"/>
<path d="M141.478 106.816C141.499 106.772 141.517 106.727 141.532 106.681V94.085L130.588 100.376C130.567 100.42 130.549 100.465 130.534 100.511V113.107L141.478 106.816Z" fill="#F5F5F5"/>
<path d="M142.881 98.8594L129.186 106.749V108.327L142.881 100.444V98.8594Z" fill="#455A64"/>
<path d="M136.717 95.292V111.138L135.349 111.9V96.0877L136.717 95.292Z" fill="#455A64"/>
<path d="M118.228 134.415V137.577L153.838 117.025V113.862L118.228 134.415Z" fill="#263238"/>
<path d="M189.448 96.4657L153.838 75.9062V113.863L189.448 134.415V96.4657Z" fill="#F0F0F0"/>
<path d="M165.523 92.1702L177.762 99.2099C177.973 99.3504 178.149 99.5381 178.275 99.758C178.402 99.978 178.475 100.224 178.49 100.478V114.638C178.49 115.103 178.16 115.312 177.762 115.056L165.523 108.016C165.311 107.877 165.134 107.69 165.007 107.47C164.881 107.249 164.808 107.002 164.795 106.749V92.5883C164.795 92.123 165.119 91.914 165.523 92.1702Z" fill="#455A64"/>
<path d="M166.198 106.816C166.198 106.816 166.151 106.721 166.137 106.681V94.085L177.081 100.376C177.102 100.42 177.12 100.465 177.135 100.511V113.107L166.198 106.816Z" fill="#F5F5F5"/>
<path d="M164.795 98.8594L178.49 106.749V108.327L164.795 100.444V98.8594Z" fill="#455A64"/>
<path d="M170.952 95.292V111.138L172.327 111.9V96.0877L170.952 95.292Z" fill="#455A64"/>
<path d="M189.448 134.415V137.577L153.838 117.025V113.862L189.448 134.415Z" fill="#455A64"/>
<path d="M189.448 96.4651L219.575 37.9561L241.49 66.4183L241.483 104.368L189.448 134.415V96.4651Z" fill="#E0E0E0"/>
<path d="M209.96 94.0857L197.721 101.125C197.509 101.265 197.332 101.452 197.206 101.672C197.079 101.893 197.007 102.139 196.993 102.393V116.553C196.993 117.019 197.317 117.228 197.721 116.978L209.96 109.932C210.172 109.794 210.348 109.607 210.475 109.388C210.601 109.169 210.674 108.923 210.688 108.671V94.5105C210.688 94.0453 210.365 93.8565 209.96 94.0857Z" fill="#455A64"/>
<path d="M209.286 108.731C209.307 108.687 209.325 108.642 209.34 108.596V96L198.396 102.298C198.375 102.339 198.356 102.382 198.342 102.426V115.029L209.286 108.731Z" fill="#F5F5F5"/>
<path d="M210.688 100.78L196.993 108.663V110.247L210.688 102.365V100.78Z" fill="#455A64"/>
<path d="M204.525 97.2139V113.06L203.156 113.815V98.0028L204.525 97.2139Z" fill="#455A64"/>
<path d="M234.612 79.8436L222.374 86.89C222.161 87.0275 221.984 87.2135 221.858 87.4327C221.731 87.652 221.658 87.8981 221.646 88.151V102.311C221.646 102.777 221.969 102.986 222.374 102.736L234.606 95.6964C234.819 95.5574 234.996 95.3703 235.124 95.1501C235.252 94.9299 235.326 94.6828 235.341 94.4287V80.2684C235.341 79.7762 235.01 79.6143 234.612 79.8436Z" fill="#455A64"/>
<path d="M233.938 94.4896C233.96 94.4464 233.978 94.4013 233.992 94.3547V81.7588L223.048 88.0568C223.048 88.0568 223.001 88.1444 222.987 88.1916V100.788L233.938 94.4896Z" fill="#F5F5F5"/>
<path d="M235.341 86.54L221.646 94.4226V96.0072L235.341 88.1246V86.54Z" fill="#455A64"/>
<path d="M229.177 82.9727V98.8187L227.808 99.5739V83.7616L229.177 82.9727Z" fill="#455A64"/>
<path d="M213.459 58.8737L220.202 54.9695C220.6 54.7402 220.931 54.929 220.931 55.3943V69.5546C220.916 69.8079 220.842 70.0542 220.716 70.2742C220.589 70.4942 220.414 70.6818 220.202 70.8223L213.459 74.7198C213.055 74.9558 212.724 74.767 212.724 74.3017V60.1414C212.739 59.8873 212.813 59.6402 212.941 59.42C213.069 59.1998 213.246 59.0127 213.459 58.8737Z" fill="#455A64"/>
<path d="M214.073 60.168L214.161 60.0466L219.596 56.9111V69.5475C219.57 69.5885 219.541 69.6269 219.508 69.6622L214.08 72.7976L214.073 60.168Z" fill="#F5F5F5"/>
<path d="M219.596 62.4736L214.073 65.6631V67.2409L219.596 64.0515V62.4736Z" fill="#455A64"/>
<path d="M189.448 134.415L241.483 104.368L241.49 107.531L189.448 137.577V134.415Z" fill="#263238"/>
<path d="M118.228 96.4651L88.1005 37.9561L66.1858 66.4183V104.368L118.228 134.415V96.4651Z" fill="#F5F5F5"/>
<path d="M71.6682 107.532V79.0693L82.6256 85.3943V113.863L71.6682 107.532Z" fill="#263238"/>
<path d="M94.3106 92.1702L106.542 99.2099C106.756 99.3489 106.933 99.536 107.061 99.7562C107.189 99.9764 107.263 100.224 107.277 100.478V114.638C107.277 115.103 106.947 115.312 106.542 115.056L94.3106 108.016C94.0979 107.877 93.921 107.69 93.7945 107.47C93.6679 107.249 93.5952 107.002 93.5824 106.749V92.5883C93.5756 92.123 93.906 91.914 94.3106 92.1702Z" fill="#455A64"/>
<path d="M94.9855 106.816C94.9617 106.772 94.9414 106.727 94.9248 106.681V94.085L105.869 100.376C105.892 100.419 105.913 100.465 105.929 100.511V113.107L94.9855 106.816Z" fill="#F5F5F5"/>
<path d="M93.5762 98.8594L107.278 106.749V108.327L93.5762 100.444V98.8594Z" fill="#455A64"/>
<path d="M99.739 95.292V111.138L101.108 111.9V96.0877L99.739 95.292Z" fill="#455A64"/>
<path d="M94.2163 58.8737L87.4734 54.9695C87.0688 54.7402 86.7451 54.929 86.7451 55.3943V69.5546C86.7585 69.8082 86.8314 70.0552 86.9579 70.2754C87.0844 70.4956 87.261 70.683 87.4734 70.8223L94.2163 74.7198C94.6209 74.9558 94.9446 74.767 94.9446 74.3017V60.1414C94.9312 59.8878 94.8583 59.6409 94.7318 59.4206C94.6053 59.2004 94.4287 59.013 94.2163 58.8737Z" fill="#455A64"/>
<path d="M93.5961 60.168L93.5152 60.0466L88.0803 56.9111V69.5475C88.1057 69.5885 88.1351 69.6269 88.168 69.6622L93.5961 72.7976V60.168Z" fill="#F5F5F5"/>
<path d="M88.0803 62.4736L93.6028 65.6631V67.2409L88.0803 64.0515V62.4736Z" fill="#455A64"/>
<path d="M190.034 98.3942L153.838 77.4909V1.57812L220.162 39.8851L190.034 98.3942Z" fill="#455A64"/>
<path d="M219.575 37.9561L218.948 39.1698L242.973 65.5619L244.228 64.8337L219.575 37.9561Z" fill="#455A64"/>
<path d="M242.973 65.5627L241.49 66.4191L219.062 42.0229L219.959 40.2832L242.973 65.5627Z" fill="#263238"/>
<path d="M189.448 96.4654L153.838 75.906V0L219.575 37.9564L189.448 96.4654Z" fill="#37474F"/>
<path d="M117.641 98.3942L153.838 77.4909V1.57812L87.5137 39.8851L117.641 98.3942Z" fill="#455A64"/>
<path d="M88.1001 37.9561L88.7272 39.1698L64.7019 65.5619L63.4478 64.8337L88.1001 37.9561Z" fill="#455A64"/>
<path d="M64.7024 65.5627L66.1858 66.4191L88.613 42.0229L87.7162 40.2832L64.7024 65.5627Z" fill="#263238"/>
<path d="M118.228 96.4654L153.838 75.906V0L88.1006 37.9564L118.228 96.4654Z" fill="#263238"/>
<path d="M118.916 58.118L126.448 72.7436V56.9313L118.916 52.582V58.118Z" fill="#F0F0F0"/>
<path d="M126.448 56.9308L134.661 42.6963L140.143 49.0212V64.8336L126.448 72.7431V56.9308Z" fill="#E0E0E0"/>
<path d="M130.763 55.1843L135.827 52.2578C136.131 52.0825 136.374 52.2241 136.374 52.5747V63.1747C136.363 63.3639 136.308 63.548 136.213 63.712C136.118 63.876 135.986 64.0153 135.827 64.1188L130.763 67.0452C130.46 67.2205 130.21 67.0452 130.21 66.7351V56.135C130.221 55.9442 130.277 55.7587 130.373 55.5934C130.469 55.4282 130.603 55.288 130.763 55.1843Z" fill="#455A64"/>
<path d="M131.222 56.1353C131.222 56.1353 131.269 56.0679 131.29 56.0476L135.335 53.6943V63.175L135.275 63.2627L131.229 65.6092L131.222 56.1353Z" fill="#F5F5F5"/>
<path d="M135.362 57.8682L131.222 60.2552V61.442L135.362 59.0482V57.8682Z" fill="#455A64"/>
<path d="M134.661 42.6963L137.406 44.2809L142.881 50.6058L140.143 49.0212L134.661 42.6963Z" fill="#263238"/>
<path d="M134.661 42.0215L137.406 43.5994L142.881 49.931L140.143 48.3464L134.661 42.0215Z" fill="#263238"/>
<path d="M137.405 44.2809L126.448 60.0932L115.491 53.7683L126.448 37.9492L137.405 44.2809Z" fill="#37474F"/>
<path d="M137.405 43.5994L126.448 59.4184L115.491 53.0935L126.448 37.2744L137.405 43.5994Z" fill="#37474F"/>
<path d="M137.406 43.5996V44.2806L142.881 50.6056V49.9313L137.406 43.5996Z" fill="#455A64"/>
<path d="M137.405 43.5996L126.448 59.4187V60.093L137.405 44.2806V43.5996Z" fill="#455A64"/>
<path d="M115.491 53.0947V53.769L126.448 60.094V59.4197L115.491 53.0947Z" fill="#263238"/>
<path d="M188.759 58.118L181.228 72.7436V56.9313L188.759 52.582V58.118Z" fill="#E0E0E0"/>
<path d="M181.228 56.9308L173.009 42.6963L167.533 49.0212V64.8336L181.228 72.7431V56.9308Z" fill="#F5F5F5"/>
<path d="M176.912 55.1843L171.848 52.2578C171.545 52.0825 171.295 52.2241 171.295 52.5747V63.1747C171.307 63.3644 171.363 63.5486 171.459 63.7126C171.556 63.8765 171.689 64.0157 171.848 64.1188L176.912 67.0452C177.216 67.2205 177.458 67.0452 177.458 66.7351V56.135C177.449 55.9447 177.395 55.7593 177.3 55.5941C177.205 55.4288 177.072 55.2884 176.912 55.1843Z" fill="#455A64"/>
<path d="M176.447 56.1353C176.429 56.1046 176.409 56.0753 176.387 56.0476L172.341 53.6943V63.175C172.366 63.2023 172.388 63.2316 172.408 63.2627L176.454 65.6092L176.447 56.1353Z" fill="#FAFAFA"/>
<path d="M172.307 57.8682L176.447 60.2552V61.442L172.307 59.0482V57.8682Z" fill="#455A64"/>
<path d="M173.008 42.6963L170.27 44.2809L164.795 50.6058L167.533 49.0212L173.008 42.6963Z" fill="#263238"/>
<path d="M173.008 42.0215L170.27 43.5994L164.795 49.931L167.533 48.3464L173.008 42.0215Z" fill="#263238"/>
<path d="M170.27 44.2809L181.228 60.0932L192.185 53.7683L181.228 37.9492L170.27 44.2809Z" fill="#37474F"/>
<path d="M170.27 43.5994L181.228 59.4184L192.185 53.0935L181.228 37.2744L170.27 43.5994Z" fill="#455A64"/>
<path d="M170.27 43.5996V44.2806L164.795 50.6056V49.9313L170.27 43.5996Z" fill="#455A64"/>
<path d="M170.27 43.5996L181.228 59.4187V60.093L170.27 44.2806V43.5996Z" fill="#455A64"/>
<path d="M192.185 53.0947V53.769L181.228 60.094V59.4197L192.185 53.0947Z" fill="#263238"/>
<path d="M118.228 134.416L107.278 140.748V143.91L118.228 137.578V134.416Z" fill="#263238"/>
<path d="M107.278 140.747L55.2356 110.693V113.863L107.278 143.909V140.747Z" fill="#455A64"/>
<path d="M66.1862 104.368L55.2356 110.693L107.278 140.747L118.229 134.415L66.1862 104.368Z" fill="#37474F"/>
<path d="M105.882 136.788C105.894 136.908 105.938 137.023 106.009 137.12C106.08 137.217 106.176 137.293 106.287 137.341C106.593 137.497 106.931 137.579 107.275 137.579C107.618 137.579 107.957 137.497 108.262 137.341C108.373 137.293 108.469 137.217 108.54 137.12C108.611 137.023 108.655 136.908 108.667 136.788V97.6787H105.869V136.788H105.882Z" fill="#263238"/>
<path d="M60.7917 110.861C60.8031 110.983 60.8473 111.099 60.9198 111.198C60.9923 111.296 61.0902 111.373 61.2031 111.421C61.5087 111.574 61.8458 111.653 62.1875 111.653C62.5293 111.653 62.8664 111.574 63.172 111.421C63.2849 111.373 63.3828 111.296 63.4553 111.198C63.5277 111.099 63.572 110.983 63.5833 110.861V71.7852H60.7917V110.861Z" fill="#263238"/>
<path d="M118.228 96.4654L63.4483 64.834L52.491 71.1589L107.271 102.79L118.228 96.4654Z" fill="#455A64"/>
<path d="M107.271 102.791V104.369L118.228 98.0437V96.4658L107.271 102.791Z" fill="#263238"/>
<path d="M107.271 102.791L52.491 71.1592V72.7438L107.271 104.368V102.791Z" fill="#37474F"/>
<path d="M165.125 206.545C165.156 206.806 165.253 207.055 165.408 207.267C165.563 207.48 165.77 207.649 166.009 207.758C166.676 208.098 167.414 208.275 168.163 208.275C168.912 208.275 169.65 208.098 170.318 207.758C170.557 207.649 170.764 207.48 170.918 207.267C171.073 207.055 171.17 206.806 171.201 206.545V162.169H165.132V206.545H165.125Z" fill="#263238"/>
<path d="M140.014 170.766V143.875L194.349 175.243V202.135L140.014 170.766Z" fill="#F0F0F0"/>
<path d="M140.014 143.875L143.891 141.637L198.233 173.005L194.349 175.244L140.014 143.875Z" fill="#F5F5F5"/>
<path d="M198.234 173.006V199.897L194.35 202.136V175.245L198.234 173.006Z" fill="#E0E0E0"/>
<path d="M144.35 164.529V154.732C144.35 154.529 144.384 154.401 144.458 154.354C144.532 154.307 144.647 154.354 144.802 154.421L148.41 156.505C148.632 156.633 148.74 156.916 148.74 157.361V157.759C148.74 158.198 148.632 158.359 148.41 158.231L146.124 156.883V159.58L148.248 160.8C148.47 160.928 148.578 161.218 148.578 161.657V162.061C148.578 162.5 148.47 162.655 148.248 162.527L146.124 161.306V165.541C146.124 165.696 146.07 165.777 145.969 165.783C145.78 165.768 145.598 165.703 145.443 165.595L145.031 165.352C144.58 165.102 144.35 164.826 144.35 164.529Z" fill="#13C296"/>
<path d="M149.697 162.628C149.697 158.973 150.846 157.806 153.143 159.128C155.44 160.45 156.573 162.938 156.541 166.593C156.541 170.265 155.4 171.443 153.116 170.126C150.832 168.809 149.693 166.309 149.697 162.628ZM154.37 168.238C154.712 167.382 154.849 166.458 154.768 165.541C154.812 164.483 154.68 163.426 154.377 162.412C154.174 161.759 153.74 161.203 153.156 160.848C152.597 160.524 152.179 160.571 151.916 160.989C151.653 161.407 151.511 162.297 151.511 163.686C151.469 164.751 151.606 165.816 151.916 166.835C152.123 167.497 152.564 168.06 153.156 168.42C153.696 168.723 154.1 168.663 154.37 168.238Z" fill="#13C296"/>
<path d="M157.957 172.384V162.586C157.957 162.391 157.991 162.27 158.072 162.222C158.153 162.175 158.261 162.222 158.423 162.283L160.587 163.524C161.413 163.94 162.105 164.581 162.582 165.373C163.059 166.165 163.303 167.076 163.284 168.001C163.284 169.219 162.866 169.846 162.03 169.882V169.943C162.488 170.602 162.798 171.352 162.94 172.141L163.736 175.58C163.74 175.618 163.74 175.657 163.736 175.695C163.742 175.731 163.742 175.767 163.736 175.803C163.736 176.039 163.5 176.019 163.021 175.742L162.61 175.526C162.192 175.284 161.936 175.034 161.936 174.771L161.207 171.4C161.133 171.07 161.008 170.753 160.837 170.462C160.673 170.228 160.455 170.036 160.203 169.903L159.71 169.613V173.422C159.71 173.719 159.474 173.733 159.036 173.422L158.679 173.213C158.187 172.964 157.957 172.681 157.957 172.384ZM160.654 168.264C160.746 168.332 160.86 168.364 160.973 168.352C161.086 168.341 161.192 168.288 161.268 168.203C161.467 167.923 161.558 167.581 161.524 167.239C161.54 166.816 161.455 166.395 161.275 166.012C161.131 165.703 160.896 165.447 160.601 165.277L159.69 164.751V167.704L160.654 168.264Z" fill="#13C296"/>
<path d="M167.276 178.076C166.908 177.751 166.59 177.374 166.332 176.957C166.286 176.856 166.245 176.752 166.211 176.647C166.183 176.557 166.169 176.464 166.171 176.37C166.167 176.135 166.223 175.903 166.332 175.696C166.44 175.494 166.562 175.433 166.697 175.514C166.799 175.588 166.888 175.679 166.96 175.784C167.074 175.925 167.148 176.02 167.189 176.06C167.523 176.52 167.945 176.909 168.429 177.206C168.552 177.294 168.691 177.356 168.838 177.388C168.986 177.42 169.138 177.423 169.286 177.395C169.522 177.328 169.643 177.071 169.643 176.64C169.646 176.225 169.537 175.817 169.326 175.46C169.044 174.984 168.721 174.533 168.362 174.111C167.962 173.641 167.591 173.148 167.249 172.635C166.967 172.195 166.741 171.721 166.575 171.225C166.405 170.715 166.32 170.179 166.326 169.641C166.326 168.717 166.582 168.137 167.101 167.908C167.444 167.805 167.806 167.785 168.157 167.85C168.509 167.914 168.84 168.061 169.124 168.279C169.456 168.471 169.768 168.697 170.055 168.953C170.343 169.2 170.603 169.478 170.83 169.782C170.946 169.931 171.012 170.113 171.019 170.301C171.016 170.534 170.965 170.763 170.87 170.976C170.769 171.192 170.661 171.266 170.533 171.198C170.422 171.113 170.32 171.015 170.23 170.908C169.93 170.604 169.59 170.343 169.218 170.133C168.841 169.917 168.558 169.863 168.369 169.971C168.267 170.04 168.187 170.136 168.136 170.248C168.084 170.359 168.065 170.483 168.079 170.605C168.078 170.909 168.14 171.209 168.261 171.488C168.369 171.744 168.507 171.986 168.672 172.21C168.827 172.412 169.111 172.763 169.522 173.268C170.071 173.909 170.542 174.613 170.924 175.365C171.231 176.029 171.385 176.752 171.376 177.483C171.4 177.98 171.288 178.474 171.052 178.912C170.952 179.083 170.809 179.225 170.638 179.326C170.467 179.426 170.273 179.481 170.075 179.485C169.522 179.483 168.982 179.317 168.524 179.007C168.074 178.745 167.655 178.433 167.276 178.076Z" fill="#13C296"/>
<path d="M171.707 180.463C171.707 180.429 171.707 180.348 171.707 180.213L173.898 171.589C173.952 171.367 174.188 171.373 174.62 171.589L175.294 171.994C175.482 172.065 175.651 172.177 175.79 172.321C175.928 172.466 176.033 172.64 176.096 172.83L178.274 183.976C178.274 184.131 178.274 184.219 178.274 184.253C178.274 184.455 178.092 184.455 177.728 184.253L177.189 183.942C176.811 183.72 176.602 183.504 176.562 183.268L176.137 180.908L173.817 179.559L173.393 181.42C173.352 181.596 173.163 181.582 172.813 181.38L172.28 181.077C171.898 180.87 171.707 180.665 171.707 180.463ZM175.901 179.155L175.179 175.149C175.119 174.785 175.065 174.388 175.018 173.963L174.95 173.922C174.903 174.3 174.849 174.63 174.788 174.927L174.114 178.103L175.901 179.155Z" fill="#13C296"/>
<path d="M179.326 185.008C179.247 184.852 179.21 184.677 179.219 184.502V174.711C179.219 174.415 179.448 174.394 179.893 174.657L180.304 174.893C180.502 174.996 180.678 175.136 180.823 175.305C180.926 175.425 180.984 175.578 180.985 175.736V184.374L183.251 185.682C183.376 185.752 183.472 185.864 183.521 185.999C183.58 186.175 183.608 186.36 183.601 186.545V186.943C183.616 187.101 183.588 187.259 183.521 187.402C183.467 187.476 183.379 187.483 183.251 187.402L179.664 185.332C179.526 185.253 179.41 185.142 179.326 185.008Z" fill="#13C296"/>
<path d="M184.768 188.15C184.688 187.994 184.651 187.82 184.66 187.645V178.002C184.66 177.8 184.694 177.672 184.768 177.624C184.842 177.577 184.957 177.624 185.112 177.699L189.009 179.944C189.13 180.019 189.225 180.129 189.279 180.261C189.336 180.437 189.361 180.622 189.353 180.807V181.212C189.368 181.366 189.343 181.522 189.279 181.663C189.225 181.738 189.131 181.744 189.009 181.663L186.433 180.18V182.877L188.726 184.226C188.851 184.293 188.947 184.403 188.996 184.536C189.055 184.712 189.082 184.897 189.077 185.082V185.487C189.091 185.642 189.063 185.798 188.996 185.939C188.942 186.019 188.854 186.019 188.726 185.939L186.433 184.59V187.516L189.023 189.013C189.141 189.078 189.232 189.183 189.279 189.31C189.337 189.488 189.362 189.676 189.353 189.863V190.268C189.371 190.424 189.345 190.583 189.279 190.726C189.225 190.8 189.137 190.8 189.023 190.726L185.112 188.474C184.972 188.396 184.854 188.285 184.768 188.15Z" fill="#13C296"/>
<path d="M66.2666 23.8979L64.3179 24.6464V20.3579C64.3179 16.9864 61.6207 16.1367 58.6605 17.836C55.7139 19.542 53.3201 23.6754 53.3201 27.0806V27.7077C52.9062 27.5773 52.4679 27.5436 52.0389 27.609C51.6099 27.6745 51.2016 27.8374 50.8454 28.0853C49.7261 28.8138 48.7946 29.7963 48.1267 30.9528C47.4588 32.1093 47.0735 33.4071 47.0019 34.7407V35.0239L44.3047 36.5883C43.569 37.0693 42.9568 37.7167 42.5175 38.4781C42.0783 39.2395 41.8243 40.0935 41.7761 40.9712C41.7761 42.5828 42.9089 43.2369 44.3047 42.4277L66.2869 29.7374C67.0228 29.2582 67.6353 28.6122 68.0747 27.8518C68.5141 27.0914 68.7679 26.2381 68.8155 25.3612C68.7952 23.7496 67.6624 23.0955 66.2666 23.8979Z" fill="#F0F0F0"/>
<path d="M44.2034 25.3192L40.6768 27.3421C40.6768 27.187 40.6768 27.0252 40.6768 26.8769V25.8519C40.6768 24.0313 39.3957 23.2896 37.8178 24.1999C37.1532 24.6219 36.5837 25.1776 36.1456 25.8317C35.8893 23.5391 34.1227 22.6895 31.911 23.9504C30.6643 24.7624 29.6272 25.8576 28.8843 27.1466C28.1413 28.4356 27.7136 29.882 27.6359 31.3677V32.8984C27.6184 33.5097 27.743 34.1168 28 34.6718L25.0533 36.3778C24.5932 36.678 24.21 37.0822 23.9348 37.5577C23.6595 38.0333 23.4999 38.5669 23.4688 39.1154C23.4688 40.1269 24.1835 40.5382 25.0533 40.0325L44.2034 28.9807C44.6648 28.6802 45.0488 28.275 45.3242 27.7981C45.5995 27.3213 45.7584 26.7861 45.788 26.2363C45.788 25.2248 45.08 24.8203 44.2034 25.3192Z" fill="#F0F0F0"/>
<path d="M244.342 201.98H240.546V207.51H244.342V201.98Z" fill="#FFA8A7"/>
<path d="M230.986 195.139L227.192 195.27L227.382 200.796L231.176 200.665L230.986 195.139Z" fill="#FFA8A7"/>
<path d="M244.092 147.995C244.092 151.616 244.564 175.075 244.564 175.075C244.652 176.12 245.63 178.049 245.421 182.054C245.131 187.496 244.659 202.62 244.659 202.62C244.659 202.62 242.879 204.387 240.363 202.62C240.363 202.62 236.925 182.074 236.243 176.68C235.65 171.96 234.645 159.148 234.645 159.148L231.126 174.205C231.126 174.205 231.746 177.745 231.881 180.274C232.016 182.803 231.206 197.199 231.206 197.199C230.593 197.584 229.888 197.801 229.164 197.829C228.44 197.856 227.721 197.692 227.08 197.354C227.08 197.354 224.025 176.275 223.634 174.016C223.243 171.757 226.331 147.995 226.331 147.995H244.092Z" fill="#37474F"/>
<path d="M230.289 122.702C228.732 122.884 227.491 123.727 225.232 127.571C223.425 130.645 219.649 136.539 219.649 136.539C219.298 136.269 210.937 131.407 209.083 129.122C208.703 128.254 208.235 127.427 207.687 126.654C206.972 125.73 206.244 124.82 205.489 123.956C205.432 123.887 205.366 123.826 205.293 123.774C205.017 123.613 204.619 123.855 204.551 124.165C204.489 124.484 204.527 124.813 204.659 125.109C204.794 125.514 205.199 126.074 204.659 126.168C204.165 126.195 203.673 126.085 203.236 125.851C202.508 125.541 201.793 125.177 201.092 124.82C200.663 124.539 200.173 124.363 199.663 124.307C199.289 124.324 198.93 124.455 198.632 124.681C198.335 124.908 198.113 125.219 197.997 125.575C197.889 125.933 197.856 126.31 197.902 126.681C197.947 127.053 198.069 127.411 198.26 127.733C198.643 128.376 199.155 128.934 199.764 129.371C201.038 130.362 202.737 130.821 204.288 131.232C205.07 131.443 205.809 131.788 206.473 132.25C207.707 133.113 214.201 139.148 217.201 141.508C218.631 142.635 220.667 143.262 222.299 141.61C223.931 139.958 230.478 131.225 230.478 131.225L234.598 123.073C233.181 122.785 231.735 122.66 230.289 122.702Z" fill="#FFA8A7"/>
<path d="M229.818 122.784C228.719 123.182 226.723 124.692 223.931 129.143C221.139 133.593 219.292 136.317 219.292 136.317L210.391 130.006C209.113 130.929 208.124 132.196 207.539 133.661C207.539 133.661 217.04 141.88 217.788 142.474C219.433 143.775 220.29 144.018 221.746 142.791C223.203 141.563 228.051 134.355 228.051 134.355L229.818 122.784Z" fill="#263238"/>
<path d="M238.374 122.877H238.428C240.053 123.292 241.493 124.238 242.52 125.564C243.546 126.891 244.099 128.523 244.092 130.2V147.981C241.429 150.874 232.144 152.223 226.331 147.981V129.478C226.331 126.518 227.977 122.965 232.515 122.735L238.374 122.877Z" fill="white"/>
<path d="M239.656 107.739C239.961 107.704 240.27 107.738 240.559 107.84C240.849 107.941 241.112 108.108 241.328 108.326C242.049 109.061 241.901 110.423 241.328 113.552L239.109 113.808L239.656 107.739Z" fill="#263238"/>
<path d="M226.669 106.829C226.191 106.835 225.718 106.741 225.279 106.553C224.605 106.155 224.416 106.93 224.794 107.605C225.041 108.087 225.407 108.499 225.858 108.8C226.309 109.101 226.829 109.281 227.37 109.324C227.37 109.23 228.01 107.591 228.01 107.591L226.669 106.829Z" fill="#263238"/>
<path d="M238.61 113.809C238.94 114.004 239.412 113.37 239.824 112.946C239.984 112.763 240.187 112.624 240.416 112.542C240.644 112.461 240.89 112.438 241.129 112.477C241.369 112.516 241.594 112.616 241.785 112.766C241.975 112.916 242.124 113.113 242.218 113.337C242.892 114.759 241.361 116.647 240.458 117.275C240.206 117.492 239.892 117.625 239.56 117.654C239.228 117.683 238.896 117.607 238.61 117.436L238.374 122.878C238.374 122.878 237.268 124.901 234.079 125.373C232.292 125.643 231.462 124.024 232.514 122.676V120.7C231.715 120.871 230.893 120.912 230.08 120.821C229.662 120.713 228.671 119.513 228.057 118.165C227.336 116.654 226.136 113.977 227.201 109.439C228.347 104.571 233.58 104.422 236.702 106.385C239.824 108.347 238.61 113.809 238.61 113.809Z" fill="#FFA8A7"/>
<path d="M238.61 114.361C238.779 114.361 239.413 113.316 239.824 112.945C240.391 112.426 239.656 107.739 239.656 107.739C239.656 107.739 240.229 105.959 239.109 104.779C237.99 103.599 235.799 103.795 234.207 103.741C232.25 103.752 230.311 103.362 228.51 102.595C226.244 101.617 226.075 101.495 225.812 102.493C225.549 103.491 225.421 105.764 226.777 107.288L227.896 107.699C227.896 107.699 228.503 108.238 230.593 108.495C232.543 108.641 234.503 108.605 236.446 108.387C237.06 108.299 237.188 108.893 237.518 110.518C237.815 111.94 238.058 114.354 238.61 114.361Z" fill="#263238"/>
<path d="M239.655 108.097L241.645 107.025C241.581 106.89 241.491 106.77 241.379 106.672C241.268 106.573 241.137 106.499 240.996 106.452C240.855 106.405 240.706 106.388 240.558 106.4C240.409 106.413 240.265 106.456 240.134 106.526C239.868 106.677 239.671 106.924 239.582 107.216C239.493 107.508 239.519 107.824 239.655 108.097Z" fill="#263238"/>
<path d="M232.521 120.726C233.884 120.465 235.22 120.081 236.513 119.58C237.12 119.261 237.618 118.768 237.943 118.164C237.784 118.77 237.507 119.339 237.127 119.836C236.371 120.801 232.521 121.515 232.521 121.515V120.726Z" fill="#F28F8F"/>
<path d="M233.23 113.066C233.234 113.182 233.272 113.295 233.339 113.39C233.407 113.485 233.501 113.558 233.61 113.599C233.718 113.641 233.837 113.65 233.951 113.625C234.064 113.6 234.168 113.542 234.249 113.458C234.33 113.374 234.385 113.269 234.406 113.154C234.427 113.04 234.414 112.921 234.369 112.814C234.324 112.707 234.248 112.615 234.15 112.551C234.053 112.487 233.939 112.452 233.823 112.452C233.744 112.453 233.665 112.47 233.592 112.501C233.519 112.532 233.453 112.578 233.398 112.635C233.343 112.692 233.3 112.76 233.271 112.834C233.242 112.907 233.228 112.986 233.23 113.066Z" fill="#263238"/>
<path d="M233.856 110.827L235.124 111.501C235.213 111.327 235.233 111.126 235.179 110.938C235.125 110.75 235.002 110.59 234.834 110.49C234.748 110.446 234.654 110.419 234.558 110.412C234.461 110.405 234.365 110.418 234.273 110.449C234.182 110.481 234.098 110.53 234.026 110.595C233.954 110.66 233.897 110.739 233.856 110.827Z" fill="#263238"/>
<path d="M233.277 117.085L231.928 117.597C231.958 117.688 232.005 117.771 232.068 117.843C232.13 117.915 232.207 117.973 232.292 118.015C232.378 118.056 232.471 118.08 232.566 118.085C232.661 118.09 232.756 118.075 232.845 118.042C233.026 117.969 233.172 117.828 233.252 117.65C233.333 117.472 233.341 117.269 233.277 117.085Z" fill="#F28F8F"/>
<path d="M227.943 111.319L229.096 110.429C229.044 110.348 228.976 110.278 228.895 110.226C228.815 110.173 228.724 110.138 228.629 110.123C228.534 110.108 228.436 110.114 228.344 110.14C228.251 110.166 228.165 110.212 228.091 110.274C227.938 110.396 227.837 110.573 227.809 110.767C227.782 110.962 227.829 111.159 227.943 111.319Z" fill="#263238"/>
<path d="M228.3 112.897C228.298 112.976 228.312 113.055 228.341 113.129C228.37 113.203 228.414 113.271 228.469 113.328C228.524 113.385 228.59 113.43 228.663 113.462C228.736 113.493 228.814 113.51 228.894 113.511C229.053 113.507 229.205 113.441 229.316 113.326C229.427 113.211 229.489 113.057 229.487 112.897C229.487 112.74 229.424 112.589 229.313 112.478C229.202 112.366 229.051 112.304 228.894 112.304C228.736 112.304 228.585 112.366 228.474 112.478C228.363 112.589 228.3 112.74 228.3 112.897Z" fill="#263238"/>
<path d="M231.321 112.337L231.125 115.904L229.264 115.263L231.321 112.337Z" fill="#F28F8F"/>
<path d="M240.546 205.634V205.095C240.181 205.25 239.339 208.466 237.848 209.815C236.655 210.907 235.016 212.168 234.605 213.389C234.194 214.609 236.877 215.351 237.976 215.155C239.278 214.926 241.53 214.009 242.096 213.132C242.663 212.256 242.926 211.035 243.391 210.435C243.856 209.835 244.908 209.12 245.158 208.412C245.231 207.742 245.158 207.063 244.942 206.423C244.767 205.749 244.571 205.007 244.342 205.075V205.486C243.809 205.926 243.138 206.165 242.447 206.16C241.887 206.174 240.539 206.059 240.546 205.634Z" fill="#263238"/>
<path d="M227.343 199.626C227.14 199.626 226.985 199.909 226.547 200.381C225.897 201.036 225.143 201.578 224.315 201.986C222.892 202.7 220.128 203.793 218.874 204.359C218.091 204.71 218.132 205.654 218.941 206.186C219.75 206.719 221.699 207.117 224.039 206.591C225.313 206.308 226.979 205.128 228.03 205.189C229.082 205.249 231.045 205.236 231.827 204.703C232.609 204.17 232.292 203.024 232.07 202.046C231.847 201.069 231.49 199.349 231.132 199.41V199.74C230.674 200.414 228.347 200.718 227.349 200.205L227.343 199.626Z" fill="#263238"/>
<path d="M234.645 159.175C233.117 158.494 231.649 157.686 230.256 156.761C231.186 157.908 232.331 158.863 233.627 159.573L231.786 171.332L234.645 159.175Z" fill="#263238"/>
<path d="M232.521 122.708C231.249 123.776 230.327 125.202 229.878 126.801C229.312 129.242 229.204 156.471 229.204 156.471C229.204 156.471 226.311 155.931 224.956 154.873V129.991C224.956 126.586 225.778 122.877 232.494 122.311L232.521 122.708Z" fill="#263238"/>
<path d="M238.374 122.784C238.374 122.784 235.124 124.848 235.084 134.288C235.043 142.447 234.881 156.755 234.881 156.755C234.881 156.755 240.545 157.908 244.591 155.494C244.591 155.494 244.133 135.056 244.059 131.988C243.971 128.482 244.996 125.502 243.02 124.51C241.522 123.808 239.968 123.23 238.374 122.784Z" fill="#263238"/>
<path d="M249.723 156.302L245.825 155.628C245.825 156.302 245.825 156.855 245.792 157.327C245.613 157.942 245.282 158.501 244.827 158.952C244.143 159.733 243.577 160.61 243.148 161.555C242.703 162.324 242.231 162.6 242.359 162.782C242.527 162.969 242.757 163.086 243.007 163.113C243.256 163.139 243.506 163.071 243.708 162.924C244.169 162.602 244.588 162.223 244.956 161.798C244.828 162.798 244.538 163.77 244.099 164.677C243.101 166.761 243.297 167.846 246.163 167.179C247.963 166.761 249.123 165.304 249.534 161.029C249.71 159.46 249.774 157.88 249.723 156.302Z" fill="#FFA8A7"/>
<path d="M241.146 123.707C242.357 124.134 243.512 124.707 244.585 125.413C245.441 126.087 250.424 140.389 250.62 141.67C250.815 142.952 250.074 156.505 250.074 156.505C249.408 156.937 248.642 157.191 247.849 157.241C247.057 157.292 246.265 157.138 245.549 156.795L244.754 143.228L240.829 132.945C240.829 132.945 238.847 127.375 241.146 123.707Z" fill="#263238"/>
<path d="M239.325 127.948L237.558 130.133L238.442 132.621L236.122 138.568L238.92 132.621L237.943 130.275L239.325 127.948Z" fill="#37474F"/>
<path d="M227.633 126.769L228.011 129.027L226.487 131.023L228.611 137.719L226.966 131.098L228.375 129.236L227.633 126.769Z" fill="#37474F"/>
</svg>
