<svg width="24" height="22" viewBox="0 0 24 22" fill="none" xmlns="http://www.w3.org/2000/svg">
<path d="M19.275 14.7875H18.225V13.7375C18.225 13.2875 17.85 12.875 17.3625 12.875C16.875 12.875 16.5 13.25 16.5 13.7375V14.7875H15.45C15 14.7875 14.5875 15.1625 14.5875 15.65C14.5875 16.1375 14.9625 16.5125 15.45 16.5125H16.5V17.5625C16.5 18.0125 16.875 18.425 17.3625 18.425C17.85 18.425 18.225 18.05 18.225 17.5625V16.5125H19.275C19.725 16.5125 20.1375 16.1375 20.1375 15.65C20.1375 15.1625 19.725 14.7875 19.275 14.7875Z" fill="#3758F9"/>
<path d="M18.375 9.7248V7.58731C18.375 6.7998 17.9625 6.0498 17.2875 5.6373L10.6875 1.6623C9.93749 1.2123 9.03749 1.2123 8.32499 1.6623L6.93749 2.5248C6.71249 1.3248 5.66249 0.424805 4.42499 0.424805H4.08749C2.66249 0.424805 1.53749 1.5873 1.53749 2.9748V5.8248C0.974988 6.2373 0.674988 6.9123 0.674988 7.6248V14.5998C0.674988 16.0248 1.83749 17.1498 3.22499 17.1498H6.86249C7.72499 17.1498 8.43749 16.4373 8.43749 15.5748V11.8998H10.5V16.2873C10.5 16.7373 10.875 17.1498 11.3625 17.1498H11.625C12.3 19.7373 14.625 21.6498 17.4 21.6498C20.7 21.6498 23.4 18.9498 23.4 15.6498C23.3625 12.6873 21.1875 10.2123 18.375 9.7248ZM4.08749 2.0748H4.42499C4.91249 2.0748 5.28749 2.4498 5.28749 2.9373V3.4998L3.22499 4.7748V2.9748C3.22499 2.4873 3.59999 2.0748 4.08749 2.0748ZM7.57499 10.1748C7.12499 10.1748 6.71249 10.5498 6.71249 11.0373V15.4248H3.22499C2.73749 15.4248 2.36249 15.0498 2.36249 14.5623V7.58731C2.36249 7.3623 2.47499 7.17481 2.66249 7.0623L9.22499 3.0873C9.41249 2.9748 9.67499 2.9748 9.86249 3.0873L16.425 7.0623C16.6125 7.17481 16.725 7.3623 16.725 7.58731V9.68731C14.775 9.9123 13.125 11.0748 12.225 12.6873V11.0373C12.225 10.5873 11.85 10.1748 11.4 10.1748H7.57499ZM17.3625 19.9248C15 19.9248 13.05 18.0123 13.05 15.6123C13.05 13.2498 14.9625 11.2998 17.3625 11.2998C19.725 11.2998 21.675 13.2123 21.675 15.6123C21.675 17.9748 19.725 19.9248 17.3625 19.9248Z" fill="#3758F9"/>
</svg>
