<svg width="25" height="24" viewBox="0 0 25 24" fill="none" xmlns="http://www.w3.org/2000/svg">
<path d="M22.4625 21.2997H20.7375V13.0872C20.7375 11.9997 20.025 11.0622 18.975 10.7997L15.2625 9.86216V5.92466C15.2625 4.98716 14.7 4.12466 13.8375 3.78716L8.02499 1.23716C7.31249 0.937163 6.44999 1.01216 5.81249 1.42466C5.13749 1.87466 4.76249 2.58716 4.76249 3.37466V21.2622H3.03749C2.58749 21.2622 2.17499 21.6372 2.17499 22.1247C2.17499 22.6122 2.54999 22.9872 3.03749 22.9872H22.5C22.95 22.9872 23.3625 22.6122 23.3625 22.1247C23.3625 21.6372 22.95 21.2997 22.4625 21.2997ZM6.44999 3.37466C6.44999 3.03716 6.67499 2.88716 6.74999 2.81216C6.82499 2.73716 7.08749 2.62466 7.38749 2.77466L13.2375 5.28716C13.4625 5.39966 13.65 5.62466 13.65 5.88716V9.41216L13.125 9.33716C12.4125 9.14966 11.7 9.29966 11.1 9.74966C10.5375 10.1997 10.2 10.8747 10.2 11.5872V21.2622H6.44999V3.37466ZM14.4375 21.2997H11.8875V11.5872C11.8875 11.3997 11.9625 11.1747 12.15 11.0622C12.3 10.9497 12.525 10.8747 12.7125 10.9497L18.5625 12.4497C18.8625 12.5247 19.05 12.7872 19.05 13.0872V21.2622H14.4375V21.2997Z" fill="currentColor"/>
</svg>
