<svg width="24" height="24" viewBox="0 0 24 24" fill="none" xmlns="http://www.w3.org/2000/svg">
<path d="M21.7125 21.2997H19.9875V13.0872C19.9875 11.9997 19.275 11.0622 18.225 10.7997L14.5125 9.86216V5.92466C14.5125 4.98716 13.95 4.12466 13.0875 3.78716L7.27499 1.23716C6.56249 0.937163 5.69999 1.01216 5.06249 1.42466C4.38749 1.87466 4.01249 2.58716 4.01249 3.37466V21.2622H2.28749C1.83749 21.2622 1.42499 21.6372 1.42499 22.1247C1.42499 22.6122 1.79999 22.9872 2.28749 22.9872H21.75C22.2 22.9872 22.6125 22.6122 22.6125 22.1247C22.6125 21.6372 22.2 21.2997 21.7125 21.2997ZM5.69999 3.37466C5.69999 3.03716 5.92499 2.88716 5.99999 2.81216C6.07499 2.73716 6.33749 2.62466 6.63749 2.77466L12.4875 5.28716C12.7125 5.39966 12.9 5.62466 12.9 5.88716V9.41216L12.375 9.33716C11.6625 9.14966 10.95 9.29966 10.35 9.74966C9.78749 10.1997 9.44999 10.8747 9.44999 11.5872V21.2622H5.69999V3.37466ZM13.6875 21.2997H11.1375V11.5872C11.1375 11.3997 11.2125 11.1747 11.4 11.0622C11.55 10.9497 11.775 10.8747 11.9625 10.9497L17.8125 12.4497C18.1125 12.5247 18.3 12.7872 18.3 13.0872V21.2622H13.6875V21.2997Z" fill="#3758F9"/>
</svg>
