<svg width="29" height="28" viewBox="0 0 29 28" fill="none" xmlns="http://www.w3.org/2000/svg">
<g clip-path="url(#clip0_717_1084)">
<path d="M15.3656 2.33301C10.8506 2.33301 7.19897 5.98467 7.19897 10.4997C7.19897 16.6247 15.3656 25.6663 15.3656 25.6663C15.3656 25.6663 23.5323 16.6247 23.5323 10.4997C23.5323 5.98467 19.8806 2.33301 15.3656 2.33301ZM9.53231 10.4997C9.53231 7.27967 12.1456 4.66634 15.3656 4.66634C18.5856 4.66634 21.199 7.27967 21.199 10.4997C21.199 13.8597 17.839 18.888 15.3656 22.0263C12.939 18.9113 9.53231 13.8247 9.53231 10.4997Z" fill="#296197"/>
<path d="M15.3656 13.4163C16.9765 13.4163 18.2823 12.1105 18.2823 10.4997C18.2823 8.88884 16.9765 7.58301 15.3656 7.58301C13.7548 7.58301 12.449 8.88884 12.449 10.4997C12.449 12.1105 13.7548 13.4163 15.3656 13.4163Z" fill="#296197"/>
</g>
<defs>
<clipPath id="clip0_717_1084">
<rect width="28" height="28" fill="white" transform="translate(0.814209)"/>
</clipPath>
</defs>
</svg>
