<svg width="20" height="20" viewBox="0 0 20 20" fill="none" xmlns="http://www.w3.org/2000/svg">
<mask id="mask0_3139_457" style="mask-type:alpha" maskUnits="userSpaceOnUse" x="0" y="0" width="20" height="20">
<rect width="20" height="20" fill="#D9D9D9"/>
</mask>
<g mask="url(#mask0_3139_457)">
<path d="M10.0016 9.99935C10.46 9.99935 10.8523 9.83615 11.1787 9.50976C11.5051 9.18338 11.6683 8.79101 11.6683 8.33268C11.6683 7.87435 11.5051 7.48199 11.1787 7.1556C10.8523 6.82921 10.46 6.66601 10.0016 6.66601C9.54329 6.66601 9.15093 6.82921 8.82454 7.1556C8.49816 7.48199 8.33496 7.87435 8.33496 8.33268C8.33496 8.79101 8.49816 9.18338 8.82454 9.50976C9.15093 9.83615 9.54329 9.99935 10.0016 9.99935ZM10.0016 16.1243C11.6961 14.5688 12.953 13.1556 13.7725 11.8848C14.5919 10.6139 15.0016 9.48546 15.0016 8.49935C15.0016 6.98546 14.519 5.74588 13.5537 4.7806C12.5884 3.81532 11.4044 3.33268 10.0016 3.33268C8.59885 3.33268 7.41482 3.81532 6.44954 4.7806C5.48427 5.74588 5.00163 6.98546 5.00163 8.49935C5.00163 9.48546 5.41135 10.6139 6.23079 11.8848C7.05024 13.1556 8.30718 14.5688 10.0016 16.1243ZM10.0016 18.3327C7.76552 16.4299 6.09538 14.6625 4.99121 13.0306C3.88704 11.3987 3.33496 9.88824 3.33496 8.49935C3.33496 6.41601 4.0051 4.75629 5.34538 3.52018C6.68566 2.28407 8.23774 1.66602 10.0016 1.66602C11.7655 1.66602 13.3176 2.28407 14.6579 3.52018C15.9982 4.75629 16.6683 6.41601 16.6683 8.49935C16.6683 9.88824 16.1162 11.3987 15.012 13.0306C13.9079 14.6625 12.2377 16.4299 10.0016 18.3327Z" fill="#111928"/>
</g>
</svg>
