<svg width="12" height="4" viewBox="0 0 12 4" fill="none" xmlns="http://www.w3.org/2000/svg">
<path d="M1.33333 3.33366C2.06971 3.33366 2.66667 2.73671 2.66667 2.00033C2.66667 1.26395 2.06971 0.666992 1.33333 0.666992C0.596954 0.666992 0 1.26395 0 2.00033C0 2.73671 0.596954 3.33366 1.33333 3.33366Z" fill="#3758F9"/>
<path d="M6.00008 3.33366C6.73646 3.33366 7.33342 2.73671 7.33342 2.00033C7.33342 1.26395 6.73646 0.666992 6.00008 0.666992C5.2637 0.666992 4.66675 1.26395 4.66675 2.00033C4.66675 2.73671 5.2637 3.33366 6.00008 3.33366Z" fill="#3758F9"/>
<path d="M10.6666 3.33366C11.403 3.33366 11.9999 2.73671 11.9999 2.00033C11.9999 1.26395 11.403 0.666992 10.6666 0.666992C9.93021 0.666992 9.33325 1.26395 9.33325 2.00033C9.33325 2.73671 9.93021 3.33366 10.6666 3.33366Z" fill="#3758F9"/>
</svg>
