<svg width="16" height="16" viewBox="0 0 16 16" fill="none" xmlns="http://www.w3.org/2000/svg">
<g clip-path="url(#clip0_3142_2992)">
<path d="M15.5497 2.97547C15.5497 2.77547 15.4747 2.57547 15.3247 2.42548C15.0247 2.12547 14.7247 1.82547 14.4497 1.52547C14.1747 1.25047 13.9247 0.975475 13.6497 0.725475C13.5247 0.575475 13.3747 0.475475 13.1747 0.450475C12.9497 0.425475 12.7497 0.475475 12.5747 0.625475L10.8747 2.32548H2.02471C1.17471 2.32548 0.449707 3.02548 0.449707 3.90048V14.0005C0.449707 14.8505 1.14971 15.5755 2.02471 15.5755H12.1497C12.9997 15.5755 13.7247 14.8755 13.7247 14.0005V5.12548L15.3497 3.50048C15.4747 3.35048 15.5497 3.17547 15.5497 2.97547ZM8.19971 9.00048C8.17471 9.02548 8.17471 9.02548 8.14971 9.02548L6.34971 9.62548L6.94971 7.82548C6.94971 7.80048 6.97471 7.80048 6.97471 7.77548L11.4747 3.27548L12.7247 4.50048L8.19971 9.00048ZM12.5747 14.0005C12.5747 14.2505 12.3747 14.4505 12.1247 14.4505H2.02471C1.77471 14.4505 1.57471 14.2505 1.57471 14.0005V3.87548C1.57471 3.62548 1.77471 3.42547 2.02471 3.42547H9.72471L6.17471 7.00048C6.04971 7.12548 5.92471 7.30048 5.87471 7.50048L4.94971 10.3005C4.87471 10.5005 4.92471 10.6755 5.02471 10.8505C5.09971 10.9505 5.24971 11.1005 5.52471 11.1005H5.62471L8.49971 10.1505C8.67471 10.1005 8.84971 9.97548 8.97471 9.85048L12.5747 6.25048V14.0005ZM13.4997 3.72548L12.2497 2.50047L13.0247 1.72547C13.2247 1.92548 14.0497 2.75047 14.2497 2.97547L13.4997 3.72548Z" fill="#111928"/>
</g>
<defs>
<clipPath id="clip0_3142_2992">
<rect width="16" height="16" fill="white"/>
</clipPath>
</defs>
</svg>
