<svg width="22" height="24" viewBox="0 0 22 24" fill="none" xmlns="http://www.w3.org/2000/svg">
<path d="M15.9499 12.2248C15.7624 12.2248 15.5749 12.2248 15.4249 12.2623C14.3374 11.0248 13.0249 10.1248 11.5624 9.6748C13.0249 8.8498 14.0374 7.27481 14.0374 5.4748C14.0374 2.8123 11.8624 0.674805 9.2374 0.674805C6.5749 0.674805 4.4374 2.8498 4.4374 5.4748C4.4374 7.27481 5.4499 8.8498 6.9124 9.6748C5.4499 10.1248 4.0999 11.0248 3.0124 12.2998C1.4374 14.1748 0.537402 16.7998 0.462402 19.6498C0.462402 19.9873 0.649902 20.2873 0.912402 20.4373C1.9249 20.9248 5.4499 22.5373 9.2374 22.5373C10.3249 22.5373 11.4499 22.4248 12.5749 22.1998C13.5124 22.9123 14.6749 23.3623 15.9499 23.3623C19.0249 23.3623 21.4999 20.8498 21.4999 17.8123C21.4999 14.7748 19.0249 12.2248 15.9499 12.2248ZM9.2374 2.3623C10.9624 2.3623 12.3499 3.7498 12.3499 5.4748C12.3499 7.1998 10.9624 8.58731 9.2374 8.58731C7.5124 8.58731 6.1249 7.1998 6.1249 5.4748C6.1249 3.7498 7.5124 2.3623 9.2374 2.3623ZM2.1874 19.1623C2.3374 16.9123 3.0874 14.8873 4.3249 13.3873C5.6374 11.8498 7.3999 10.9873 9.2749 10.9873C10.8874 10.9873 12.3874 11.6248 13.6249 12.7498C11.7499 13.6498 10.4374 15.5623 10.4374 17.7748C10.4374 18.8623 10.7374 19.8373 11.2999 20.6998C10.6249 20.7748 9.9499 20.8498 9.3124 20.8498C6.3124 20.8498 3.4624 19.7623 2.1874 19.1623ZM15.9499 21.6748C13.8124 21.6748 12.0874 19.9498 12.0874 17.8123C12.0874 15.6748 13.8124 13.9498 15.9499 13.9498C18.0874 13.9498 19.8124 15.6748 19.8124 17.8123C19.8124 19.9498 18.0874 21.6748 15.9499 21.6748Z" fill="#3758F9"/>
</svg>
