<svg width="20" height="20" viewBox="0 0 20 20" fill="none" xmlns="http://www.w3.org/2000/svg">
<g id="Group">
<path id="Vector" d="M18.1878 11.3437L17.0003 10.6562C17.0316 10.4687 17.0316 10.25 17.0316 10C17.0316 9.78125 17.0316 9.5625 17.0003 9.34375L18.1878 8.65625C19.0003 8.1875 19.2816 7.125 18.8128 6.3125L17.5941 4.1875C17.3753 3.78125 17.0003 3.5 16.5628 3.40625C16.1253 3.28125 15.6566 3.34375 15.2503 3.5625L14.0628 4.28125C13.7191 4.03125 13.3441 3.8125 12.9378 3.625V2.25C12.9378 1.3125 12.1566 0.53125 11.2191 0.53125H8.78159C7.84409 0.53125 7.06284 1.3125 7.06284 2.25V3.625C6.65659 3.8125 6.28159 4.03125 5.93784 4.25L4.75034 3.5625C4.34409 3.34375 3.90659 3.28125 3.43784 3.40625C3.00034 3.53125 2.62534 3.8125 2.40659 4.1875L1.18784 6.3125C0.719093 7.125 1.00034 8.1875 1.81284 8.65625L3.00034 9.34375C2.96909 9.53125 2.96909 9.75 2.96909 10C2.96909 10.2187 2.96909 10.4375 3.00034 10.6562L1.81284 11.3437C1.00034 11.8125 0.719093 12.875 1.18784 13.6875L2.40659 15.8125C2.62534 16.2187 3.00034 16.5 3.43784 16.5937C3.87534 16.7187 4.34409 16.6562 4.75034 16.4375L5.93784 15.75C6.28159 16 6.65659 16.2187 7.06284 16.375V17.75C7.06284 18.6875 7.84409 19.4687 8.78159 19.4687H11.2191C12.1566 19.4687 12.9378 18.6875 12.9378 17.75V16.375C13.3441 16.1875 13.7191 15.9687 14.0628 15.7187L15.2503 16.4062C15.6566 16.625 16.0941 16.6875 16.5316 16.5625C16.9691 16.4375 17.3441 16.1562 17.5628 15.7812L18.7816 13.6562C19.2503 12.8437 18.9691 11.8125 18.1878 11.3437ZM17.5941 12.9687L16.3753 15.0937C16.3441 15.1562 16.2816 15.2187 16.1878 15.2187C16.0941 15.25 16.0316 15.2187 15.9691 15.1875L14.7191 14.4687C14.2503 14.1875 13.6878 14.2187 13.2503 14.5312C12.9691 14.75 12.6566 14.9062 12.3128 15.0625C11.8441 15.2812 11.5316 15.75 11.5316 16.2812V17.7187C11.5316 17.875 11.4066 18.0312 11.2191 18.0312H8.78159C8.62534 18.0312 8.46909 17.9062 8.46909 17.7187V16.2812C8.46909 15.75 8.15659 15.2812 7.68784 15.0625C7.34409 14.9062 7.03159 14.7187 6.75034 14.5312C6.53159 14.375 6.25034 14.2812 5.96909 14.2812C5.71909 14.2812 5.50034 14.3437 5.31284 14.4687L4.06284 15.1875C4.00034 15.2187 3.90659 15.25 3.84409 15.2187C3.78159 15.1875 3.71909 15.1562 3.65659 15.0937L2.43784 12.9687C2.34409 12.8125 2.40659 12.625 2.53159 12.5625L3.78159 11.8437C4.21909 11.5937 4.50034 11.0625 4.43784 10.5625C4.40659 10.4062 4.40659 10.2187 4.40659 10.0312C4.40659 9.8125 4.40659 9.65625 4.43784 9.5C4.50034 8.96875 4.25034 8.46875 3.78159 8.21875L2.53159 7.5C2.37534 7.40625 2.34409 7.21875 2.40659 7.09375L3.62534 4.96875C3.65659 4.90625 3.71909 4.84375 3.81284 4.84375C3.90659 4.8125 3.96909 4.84375 4.03159 4.875L5.28159 5.59375C5.75034 5.875 6.31284 5.84375 6.75034 5.53125C7.03159 5.3125 7.34409 5.15625 7.68784 5C8.15659 4.78125 8.46909 4.3125 8.46909 3.78125V2.25C8.46909 2.09375 8.59409 1.9375 8.78159 1.9375H11.2191C11.3753 1.9375 11.5316 2.0625 11.5316 2.25V3.6875C11.5316 4.21875 11.8441 4.6875 12.3128 4.90625C12.6566 5.0625 12.9691 5.25 13.2503 5.4375C13.6878 5.75 14.2503 5.78125 14.6878 5.53125L15.9378 4.8125C16.0003 4.78125 16.0941 4.75 16.1566 4.78125C16.2191 4.8125 16.2816 4.84375 16.3441 4.90625L17.5628 7.03125C17.6566 7.1875 17.5941 7.375 17.4691 7.4375L16.2191 8.15625C15.7816 8.40625 15.5003 8.9375 15.5628 9.4375C15.5941 9.59375 15.5941 9.78125 15.5941 9.96875C15.5941 10.1875 15.5941 10.3437 15.5628 10.5C15.5003 11.0312 15.7816 11.5312 16.2191 11.7812L17.4691 12.5C17.6253 12.625 17.6566 12.8125 17.5941 12.9687Z" fill="#3758F9"/>
<path id="Vector_2" d="M10 5.96875C7.78125 5.96875 5.96875 7.78125 5.96875 10C5.96875 12.2187 7.78125 14.0313 10 14.0313C12.2187 14.0313 14.0313 12.2187 14.0313 10C14.0313 7.78125 12.2187 5.96875 10 5.96875ZM10 12.625C8.5625 12.625 7.375 11.4375 7.375 10C7.375 8.5625 8.5625 7.375 10 7.375C11.4375 7.375 12.625 8.5625 12.625 10C12.625 11.4375 11.4375 12.625 10 12.625Z" fill="#3758F9"/>
<path id="Vector_3" d="M10.5313 10.0625V9.1875C10.5313 8.8125 10.2188 8.5 9.84375 8.5C9.46875 8.5 9.15625 8.8125 9.15625 9.1875V10.375C9.15625 10.5625 9.21875 10.75 9.375 10.875L10.0625 11.5625C10.1875 11.6875 10.375 11.7812 10.5625 11.7812C10.75 11.7812 10.9375 11.7187 11.0625 11.5625C11.3438 11.2812 11.3438 10.8437 11.0625 10.5625L10.5313 10.0625Z" fill="#111928"/>
</g>
</svg>
