<svg width="16" height="24" viewBox="0 0 16 24" fill="none" xmlns="http://www.w3.org/2000/svg">
<path d="M15.725 17.0248C15.2 15.7123 15.05 14.1748 15.05 13.9873V10.2373C15.05 6.6373 12.3125 3.63731 8.82497 3.2248V1.4998C8.82497 1.0498 8.44997 0.674805 7.99997 0.674805C7.54997 0.674805 7.17497 1.0498 7.17497 1.4998V3.2623C3.68747 3.6748 0.949971 6.67481 0.949971 10.2748V14.0248C0.949971 14.2123 0.799971 15.7498 0.274971 17.0623C-0.0250293 17.8498 0.0499708 18.7123 0.499971 19.3873C0.949971 20.0623 1.73747 20.4748 2.56247 20.4748H4.62497C4.92497 22.0873 6.31247 23.3248 7.99997 23.3248C9.68747 23.3248 11.1125 22.0873 11.375 20.4748H13.4C14.225 20.4748 15.0125 20.0623 15.4625 19.3873C15.95 18.6748 16.0625 17.8123 15.725 17.0248ZM7.99997 21.6748C7.24997 21.6748 6.61247 21.1873 6.34997 20.5123H9.64997C9.38747 21.1498 8.74997 21.6748 7.99997 21.6748ZM14.075 18.4498C13.925 18.6748 13.6625 18.8248 13.4 18.8248H2.59997C2.33747 18.8248 2.07497 18.7123 1.92497 18.4498C1.77497 18.2248 1.73747 17.9248 1.84997 17.6998C2.52497 16.0498 2.63747 14.1748 2.63747 14.0998V14.0623V10.2748C2.63747 7.31231 5.03747 4.8748 7.99997 4.8748C10.9625 4.8748 13.3625 7.27481 13.3625 10.2373V14.0248V14.0623C13.3625 14.1373 13.475 16.0123 14.15 17.6623C14.2625 17.9248 14.2625 18.2248 14.075 18.4498Z" fill="#111928"/>
</svg>
