<svg width="16" height="16" viewBox="0 0 16 16" fill="none" xmlns="http://www.w3.org/2000/svg">
<path d="M15 14.4498H1.575V0.999805C1.575 0.699805 1.325 0.424805 0.999997 0.424805C0.674997 0.424805 0.449997 0.699805 0.449997 0.999805V14.5248C0.449997 15.0998 0.924997 15.5748 1.5 15.5748H15C15.3 15.5748 15.575 15.3248 15.575 14.9998C15.575 14.6748 15.3 14.4498 15 14.4498Z" fill="#111928"/>
<path d="M14.75 5.52441H11.825C11.525 5.52441 11.25 5.77441 11.25 6.09941C11.25 6.42441 11.5 6.67441 11.825 6.67441H13.525L12.2 7.82441H8.925C8.75 7.82441 8.575 7.89941 8.475 8.04941L6.7 10.3744H4.075C3.775 10.3744 3.5 10.6244 3.5 10.9494C3.5 11.2744 3.75 11.5244 4.075 11.5244H6.975C7.15 11.5244 7.325 11.4494 7.425 11.2994L9.2 8.97441H12.425C12.55 8.97441 12.7 8.92441 12.8 8.82441L14.45 7.37441V9.29941C14.45 9.59941 14.7 9.87441 15.025 9.87441C15.35 9.87441 15.6 9.62441 15.6 9.29941V6.32441C15.575 5.89941 15.2 5.52441 14.75 5.52441Z" fill="#111928"/>
</svg>
