<svg width="12" height="16" viewBox="0 0 12 16" fill="none" xmlns="http://www.w3.org/2000/svg">
<path d="M10.2253 2.20078H8.30029V1.77578C8.30029 1.02578 7.70029 0.425781 6.95029 0.425781H5.02529C4.27529 0.425781 3.67529 1.02578 3.67529 1.77578V2.20078H1.75029C1.02529 2.20078 0.425293 2.80078 0.425293 3.52578V4.27578C0.425293 4.82578 0.750293 5.27578 1.22529 5.47578L1.62529 14.1258C1.67529 14.9508 2.32529 15.5758 3.15029 15.5758H8.77529C9.60029 15.5758 10.2753 14.9258 10.3003 14.1258L10.7503 5.45078C11.2253 5.25078 11.5503 4.77578 11.5503 4.25078V3.50078C11.5503 2.80078 10.9503 2.20078 10.2253 2.20078ZM4.82529 1.77578C4.82529 1.65078 4.92529 1.55078 5.05029 1.55078H6.97529C7.10029 1.55078 7.20029 1.65078 7.20029 1.77578V2.20078H4.85029V1.77578H4.82529ZM1.57529 3.52578C1.57529 3.42578 1.65029 3.32578 1.77529 3.32578H10.2253C10.3253 3.32578 10.4253 3.40078 10.4253 3.52578V4.27578C10.4253 4.37578 10.3503 4.47578 10.2253 4.47578H1.77529C1.67529 4.47578 1.57529 4.40078 1.57529 4.27578V3.52578ZM8.80029 14.4508H3.20029C2.97529 14.4508 2.80029 14.2758 2.80029 14.0758L2.40029 5.60078H9.62529L9.22529 14.0758C9.20029 14.2758 9.02529 14.4508 8.80029 14.4508Z" fill="#E10E0E"/>
<path d="M6.00029 8.09961C5.70029 8.09961 5.42529 8.34961 5.42529 8.67461V11.8496C5.42529 12.1496 5.67529 12.4246 6.00029 12.4246C6.30029 12.4246 6.57529 12.1746 6.57529 11.8496V8.67461C6.57529 8.34961 6.30029 8.09961 6.00029 8.09961Z" fill="#E10E0E"/>
<path d="M8.00043 8.60053C7.67543 8.57553 7.42543 8.80053 7.40043 9.12553L7.25043 11.3255C7.22543 11.6255 7.45043 11.9005 7.77543 11.9255C7.80043 11.9255 7.80043 11.9255 7.82543 11.9255C8.12543 11.9255 8.37543 11.7005 8.37543 11.4005L8.52543 9.20053C8.52543 8.87553 8.30043 8.62553 8.00043 8.60053Z" fill="#E10E0E"/>
<path d="M3.97497 8.60053C3.67497 8.62553 3.42497 8.90053 3.44997 9.20053L3.62497 11.4005C3.64997 11.7005 3.89997 11.9255 4.17497 11.9255C4.19997 11.9255 4.19997 11.9255 4.22497 11.9255C4.52497 11.9005 4.77497 11.6255 4.74997 11.3255L4.57497 9.12553C4.57497 8.80053 4.29997 8.57553 3.97497 8.60053Z" fill="#E10E0E"/>
</svg>
