<svg width="21" height="20" viewBox="0 0 21 20" fill="none" xmlns="http://www.w3.org/2000/svg">
<path d="M12.875 9.90625C14.3437 9.90625 15.5625 8.71875 15.5625 7.21875C15.5625 5.71875 14.375 4.53125 12.875 4.53125C11.375 4.53125 10.1875 5.78125 10.1875 7.25C10.1875 8.71875 11.4062 9.90625 12.875 9.90625ZM12.875 5.96875C13.5625 5.96875 14.1563 6.53125 14.1563 7.25C14.1563 7.96875 13.5937 8.53125 12.875 8.53125C12.1562 8.53125 11.5938 7.96875 11.5938 7.25C11.5938 6.53125 12.1562 5.96875 12.875 5.96875Z" fill="#3758F9"/>
<path d="M16.9688 0.5625H4.03125C2.96875 0.5625 2.09375 1.4375 2.09375 2.5V17.5C2.09375 18.5625 2.96875 19.4688 4.0625 19.4688H16.9688C18.0313 19.4688 18.9375 18.5938 18.9375 17.5V2.5C18.9063 1.4375 18.0313 0.5625 16.9688 0.5625ZM4.03125 1.96875H16.9375C17.25 1.96875 17.5 2.21875 17.5 2.53125V13.4375L15.2188 11.5625C14.5625 11.0313 13.625 11.0625 13.0313 11.6562L10.4688 14.1875L7.1875 11.25C6.5625 10.6875 5.625 10.6875 5 11.25L3.5 12.5938V2.5C3.5 2.1875 3.75 1.96875 4.03125 1.96875ZM16.9688 18.0625H4.03125C3.71875 18.0625 3.46875 17.8125 3.46875 17.5V14.4688L5.90625 12.25C6 12.1563 6.125 12.1563 6.21875 12.25L10 15.625C10.125 15.75 10.3125 15.8125 10.4688 15.8125C10.6563 15.8125 10.8125 15.75 10.9688 15.5938L14 12.5938C14.0938 12.5 14.2188 12.5 14.3125 12.5938L17.4688 15.2188V17.5C17.5 17.8125 17.25 18.0625 16.9688 18.0625Z" fill="#3758F9"/>
</svg>
