<svg width="24" height="18" viewBox="0 0 24 18" fill="none" xmlns="http://www.w3.org/2000/svg">
<g id="Group">
<path id="Vector" d="M21.5627 7.91211H18.9752C18.5252 7.91211 18.1502 8.28711 18.1502 8.73711C18.1502 9.18711 18.5252 9.59961 18.9752 9.59961H21.5627C21.6377 9.59961 21.6752 9.63711 21.6752 9.71211V13.9496C21.6752 14.8496 20.9627 15.5621 20.0627 15.5621H3.9752C3.0752 15.5621 2.3627 14.8496 2.3627 13.9496V9.71211C2.3627 9.63711 2.4002 9.59961 2.4752 9.59961H5.0627C5.5127 9.59961 5.8877 9.22461 5.8877 8.73711C5.8877 8.24961 5.5127 7.91211 5.0627 7.91211H2.4377C1.4627 7.91211 0.637695 8.73711 0.637695 9.71211V13.9496C0.637695 15.7871 2.1377 17.2496 3.9377 17.2496H20.0252C21.8627 17.2496 23.3252 15.7496 23.3252 13.9496V9.71211C23.3252 8.73711 22.5377 7.91211 21.5627 7.91211Z" fill="#111928"/>
<path id="Vector_2" d="M8.7748 5.9623L11.1748 3.5998V10.3123C11.1748 10.7623 11.5498 11.1373 11.9998 11.1373C12.4498 11.1373 12.8248 10.7623 12.8248 10.3123V3.6373L15.1873 5.9623C15.3373 6.1123 15.5623 6.1873 15.7873 6.1873C16.0123 6.1873 16.2373 6.1123 16.3873 5.9248C16.7248 5.5873 16.7248 5.0623 16.3873 4.7248L12.5623 0.974805C12.2248 0.637305 11.6998 0.637305 11.3623 0.974805L7.5373 4.7248C7.1998 5.0623 7.1998 5.5873 7.5373 5.9248C7.9123 6.2623 8.4373 6.2623 8.7748 5.9623Z" fill="#111928"/>
</g>
</svg>
