<svg width="18" height="24" viewBox="0 0 18 24" fill="none" xmlns="http://www.w3.org/2000/svg">
<path d="M9 10.4998C6.1875 10.4998 3.9375 8.2873 3.9375 5.58731C3.9375 2.8873 6.1875 0.674805 9 0.674805C11.8125 0.674805 14.0625 2.8873 14.0625 5.58731C14.0625 8.2873 11.8125 10.4998 9 10.4998ZM9 2.3623C7.125 2.3623 5.625 3.8248 5.625 5.58731C5.625 7.3498 7.125 8.81231 9 8.81231C10.875 8.81231 12.375 7.3498 12.375 5.58731C12.375 3.8248 10.875 2.3623 9 2.3623Z" fill="#111928"/>
<path d="M16.3875 23.3619H1.6125C0.862497 23.3619 0.262497 22.7619 0.262497 22.0119V18.6369C0.262497 14.9619 3.2625 11.9619 6.9375 11.9619H11.1C14.775 11.9619 17.775 14.9619 17.775 18.6369V22.0119C17.7375 22.7244 17.1375 23.3619 16.3875 23.3619ZM1.95 21.6744H16.0875V18.6369C16.0875 15.8994 13.8375 13.6494 11.1 13.6494H6.9C4.1625 13.6494 1.9125 15.8994 1.9125 18.6369V21.6744H1.95Z" fill="#111928"/>
</svg>
