<svg width="24" height="24" viewBox="0 0 24 24" fill="none" xmlns="http://www.w3.org/2000/svg">
<g clip-path="url(#clip0_4013_6178)">
<path d="M16.8 14.4375C15.5625 14.4375 14.55 15.45 14.55 16.6875C14.55 17.925 15.5625 18.9375 16.8 18.9375C18.0375 18.9375 19.05 17.925 19.05 16.6875C19.05 15.45 18.0375 14.4375 16.8 14.4375ZM16.8 17.2875C16.5 17.2875 16.2375 17.025 16.2375 16.725C16.2375 16.425 16.5 16.1625 16.8 16.1625C17.1 16.1625 17.3625 16.425 17.3625 16.725C17.3625 17.025 17.1 17.2875 16.8 17.2875Z" fill="#3758F9"/>
<path d="M22.8375 17.6249L21.9 17.1374C21.9 16.9874 21.9375 16.8374 21.9375 16.6499C21.9375 16.4999 21.9375 16.3124 21.9 16.1624L22.8375 15.6374C23.25 15.3749 23.4375 14.8874 23.25 14.3999C23.25 14.3624 23.2125 14.3249 23.2125 14.2874L22.05 12.3374C21.7875 11.9249 21.3 11.7749 20.85 11.9249C20.8125 11.9249 20.775 11.9624 20.7375 11.9624L19.8 12.4874C19.6125 12.3374 19.425 12.1874 19.2 12.0374V11.4749C19.2 10.7249 18.6 10.1249 17.85 10.1249H15.75C15.1125 10.1249 14.55 10.5749 14.4 11.2124C13.4625 10.2374 12.375 9.5624 11.2125 9.1499C12.525 8.3624 13.425 6.8999 13.425 5.2499C13.425 2.7374 11.4 0.712402 8.88745 0.712402C6.37495 0.712402 4.34995 2.7749 4.34995 5.2499C4.34995 6.8999 5.24995 8.3624 6.56245 9.1499C5.21245 9.5999 4.01245 10.4249 3.03745 11.5874C1.53745 13.3499 0.712451 15.7874 0.637451 18.4874C0.637451 18.8249 0.824951 19.1249 1.08745 19.2749C2.02495 19.7249 5.32495 21.2624 8.84995 21.2624C9.71245 21.2624 10.575 21.1874 11.475 21.0374C11.7375 21.4124 12.225 21.5624 12.6375 21.3749C12.675 21.3749 12.7125 21.3374 12.75 21.3374L13.6875 20.8124C13.875 20.9624 14.0625 21.1124 14.325 21.2624V21.9374C14.325 22.6874 14.925 23.2874 15.675 23.2874H17.7375C18.4875 23.2874 19.0875 22.6874 19.0875 21.9374V21.2249C19.3125 21.0749 19.5 20.9249 19.6875 20.7749L20.55 21.2624C21.15 21.5999 21.7125 21.3749 21.975 20.9624L23.1375 19.0124C23.2875 18.7874 23.325 18.5249 23.25 18.2624C23.25 17.9624 23.0625 17.7374 22.8375 17.6249ZM8.88745 2.3999C10.4625 2.3999 11.7375 3.6749 11.7375 5.2499C11.7375 6.8249 10.4625 8.0999 8.88745 8.0999C7.31245 8.0999 6.03745 6.8249 6.03745 5.2499C6.03745 3.6749 7.31245 2.3999 8.88745 2.3999ZM2.36245 17.9999C2.51245 15.9374 3.18745 14.0624 4.31245 12.7124C5.51245 11.2874 7.12495 10.4999 8.88745 10.4999C10.35 10.4999 11.7 11.0624 12.825 12.0749C12.2625 11.8124 11.7375 12.0374 11.475 12.4124L10.35 14.3624C10.2 14.5874 10.1625 14.8499 10.2375 15.1124C10.3125 15.3749 10.4625 15.5999 10.725 15.7124L11.6625 16.2374C11.6625 16.3874 11.625 16.5374 11.625 16.7249C11.625 16.8749 11.625 17.0249 11.625 17.1749L10.65 17.6999C10.2375 17.9624 10.05 18.4499 10.2375 18.9374C10.2375 18.9749 10.275 19.0124 10.275 19.0499L10.5375 19.4999C9.97495 19.5749 9.41245 19.6124 8.84995 19.6124C6.18745 19.5374 3.59995 18.5249 2.36245 17.9999ZM20.2125 16.1249C20.25 16.2749 20.25 16.4624 20.25 16.6499C20.25 16.8374 20.25 17.0249 20.2125 17.1749C20.1375 17.6624 20.3625 18.1874 20.8125 18.4124L21.375 18.7499L20.9625 19.4624L20.2875 19.0874C19.875 18.8624 19.35 18.8999 19.0125 19.1999C18.9 19.2749 18.825 19.3499 18.75 19.4249C18.5625 19.6124 18.4125 19.6874 18.3 19.7624C17.85 19.9874 17.5125 20.4749 17.5125 20.9999V21.5999H16.0875V21.0374C16.0875 20.5124 15.7875 20.0249 15.3 19.7999C15.15 19.7249 15 19.6124 14.8125 19.4624C14.7375 19.3874 14.625 19.3124 14.55 19.2374C14.175 18.9374 13.6875 18.8999 13.275 19.1249L12.825 19.3874C12.7125 19.2749 12.6 19.2374 12.45 19.1999L12.1875 18.7874L12.7875 18.4499C13.2 18.2249 13.4625 17.7374 13.3875 17.2499C13.35 17.0624 13.35 16.8749 13.35 16.6874C13.35 16.4624 13.35 16.3124 13.3875 16.1624C13.4625 15.6374 13.2375 15.1499 12.7875 14.9249L12.1875 14.5874L12.6 13.8749L13.275 14.2499C13.6875 14.4749 14.2125 14.4374 14.55 14.1374C14.625 14.0624 14.7375 13.9874 14.8125 13.9124C15 13.7249 15.15 13.6499 15.3 13.5374C15.7875 13.3124 16.0875 12.8249 16.0875 12.2999V11.8124H17.5125V12.2624C17.5125 12.7874 17.8125 13.2749 18.3 13.4999C18.45 13.5749 18.5625 13.6874 18.75 13.8374C18.825 13.9124 18.9375 13.9874 19.0125 14.0624C19.3875 14.3624 19.875 14.3999 20.2875 14.1749L20.9625 13.7999L21.375 14.5124L20.775 14.8499C20.3625 15.1124 20.1 15.5999 20.2125 16.1249Z" fill="#3758F9"/>
</g>
<defs>
<clipPath id="clip0_4013_6178">
<rect width="24" height="24" fill="white"/>
</clipPath>
</defs>
</svg>
