<svg width="24" height="24" viewBox="0 0 24 24" fill="none" xmlns="http://www.w3.org/2000/svg">
<path d="M22.125 11.8499C21.7125 11.5874 21.225 11.7374 20.9625 12.1124L16.9875 18.4124C16.9125 18.4874 16.8375 18.5999 16.8 18.7124C16.725 18.8249 16.6875 18.9374 16.6875 19.0499L15.375 22.4999L18 19.8374C18.075 19.7624 18.15 19.6874 18.225 19.6124C18.3 19.5374 18.375 19.4249 18.4125 19.3124L22.3875 13.0124C22.6125 12.5999 22.5 12.0749 22.125 11.8499Z" fill="#3758F9"/>
<path d="M13.35 19.0498C12.15 19.3498 10.9125 19.5373 9.75 19.5373C7.0125 19.5373 4.425 18.5248 3.1875 17.9623C3.3375 15.8998 4.0125 14.0248 5.175 12.6373C6.375 11.2123 8.025 10.4248 9.75 10.4248C11.475 10.4248 13.125 11.2123 14.325 12.6373C14.9625 13.3873 15.45 14.2873 15.7875 15.2998C15.9375 15.7498 16.425 15.9748 16.8375 15.8248C17.2875 15.6748 17.5125 15.1873 17.3625 14.7748C16.95 13.5373 16.35 12.4498 15.6 11.5498C14.625 10.3873 13.3875 9.5623 12.0375 9.1123C13.3875 8.3248 14.2875 6.8623 14.2875 5.2123C14.2875 2.6998 12.2625 0.674805 9.75 0.674805C7.2375 0.674805 5.2125 2.6998 5.2125 5.2123C5.2125 6.8623 6.1125 8.3248 7.4625 9.1123C6.1125 9.5623 4.9125 10.3873 3.9 11.5498C2.4 13.3123 1.575 15.7873 1.5 18.4498C1.5 18.7873 1.6875 19.0873 1.95 19.2373C2.8875 19.6873 6.1875 21.2248 9.75 21.2248C11.0625 21.2248 12.4125 21.0373 13.7625 20.6998C14.2125 20.5873 14.475 20.1373 14.3625 19.6873C14.25 19.1998 13.8 18.9373 13.35 19.0498ZM9.75 2.3623C11.325 2.3623 12.6 3.6373 12.6 5.2123C12.6 6.7873 11.325 8.0623 9.75 8.0623C8.175 8.0623 6.9 6.7873 6.9 5.2123C6.9 3.6373 8.175 2.3623 9.75 2.3623Z" fill="#3758F9"/>
</svg>
