<svg width="24" height="20" viewBox="0 0 24 20" fill="none" xmlns="http://www.w3.org/2000/svg">
<path d="M7.83748 8.9502C10.1625 8.9502 12.075 7.1127 12.075 4.8252C12.075 2.5377 10.1625 0.700195 7.83748 0.700195C5.51248 0.700195 3.59998 2.5377 3.59998 4.8252C3.59998 7.1127 5.51248 8.9502 7.83748 8.9502ZM7.83748 2.4252C9.22498 2.4252 10.3875 3.5127 10.3875 4.8627C10.3875 6.2127 9.26248 7.30019 7.83748 7.30019C6.41248 7.30019 5.28748 6.2127 5.28748 4.8627C5.28748 3.5127 6.44998 2.4252 7.83748 2.4252Z" fill="#3758F9"/>
<path d="M17.25 10.75C19.275 10.75 20.8875 9.175 20.8875 7.1875C20.8875 5.2 19.2375 3.625 17.25 3.625C15.2625 3.625 13.6125 5.2 13.6125 7.1875C13.6125 9.175 15.2625 10.75 17.25 10.75ZM17.25 5.35C18.3375 5.35 19.2 6.175 19.2 7.225C19.2 8.275 18.3375 9.1 17.25 9.1C16.1625 9.1 15.3 8.275 15.3 7.225C15.3 6.175 16.1625 5.35 17.25 5.35Z" fill="#3758F9"/>
<path d="M17.4375 11.1254H17.1C15.975 11.1254 14.8875 11.4629 13.95 12.0254C12.9375 10.6754 11.325 9.77539 9.52499 9.77539H6.18749C3.11249 9.81289 0.674988 12.2504 0.674988 15.2879V17.9879C0.674988 18.7004 1.23749 19.2629 1.94999 19.2629H22.0875C22.8 19.2629 23.4 18.6629 23.4 17.9504V17.0504C23.3625 13.7879 20.7 11.1254 17.4375 11.1254ZM2.36249 17.5754V15.2879C2.36249 13.1879 4.08749 11.4629 6.18749 11.4629H9.52499C11.625 11.4629 13.35 13.1879 13.35 15.2879V17.5754H2.36249ZM21.675 17.5754H15V15.2879C15 14.6879 14.8875 14.0879 14.7 13.5254C15.375 13.0379 16.2 12.8129 17.0625 12.8129H17.4C19.725 12.8129 21.6375 14.7254 21.6375 17.0504V17.5754H21.675Z" fill="#3758F9"/>
</svg>
